<svg xmlns="http://www.w3.org/2000/svg" width="413" height="434" style="shape-rendering:geometricprecision;text-rendering:geometricprecision;image-rendering:optimizequality;fill-rule:evenodd;clip-rule:evenodd"><path style="opacity:1" fill="#c6c5c5" d="M183.5 13.5a385.071 385.071 0 0 0-29 3 16.336 16.336 0 0 0 2-5h7a15.417 15.417 0 0 0-1-7 29.779 29.779 0 0 1 5-2 167.818 167.818 0 0 1 2 6.5 40.94 40.94 0 0 0 9 .5v-8h6a34.121 34.121 0 0 0 1 10c-.247 1.213-.914 1.88-2 2Z"/><path style="opacity:1" fill="#b2b2b1" d="M250.5 10.5c-1.946.535-2.946 1.868-3 4a734.322 734.322 0 0 0-22-2c-.31-3.213.023-6.213 1-9a8.43 8.43 0 0 0 .5 4c.495-1.973.662-3.973.5-6 2.357-.163 4.69.003 7 .5-.923 2.04-1.256 4.207-1 6.5 3.027 1.009 6.027 1.009 9 0a11.987 11.987 0 0 0 1-6h6a20.223 20.223 0 0 1-1 5c.442 1.239 1.109 2.239 2 3Z"/><path style="opacity:1" fill="#82807f" d="M178.5-.5h7a100.77 100.77 0 0 0 2 14c-1.189.929-2.522 1.262-4 1v-1c1.086-.12 1.753-.787 2-2a34.121 34.121 0 0 1-1-10h-6v8a40.94 40.94 0 0 1-9-.5 167.818 167.818 0 0 0-2-6.5 29.779 29.779 0 0 0-5 2 15.417 15.417 0 0 1 1 7h-10v-7a9.107 9.107 0 0 0-5 1c-.549 2.76-1.216 4.76-2 6a41.541 41.541 0 0 1-1-8 19.374 19.374 0 0 0 8-1l3 8a9.107 9.107 0 0 1 5-1c-.237-2.712-.237-5.212 0-7.5a40.94 40.94 0 0 1 9-.5v7a9.107 9.107 0 0 0 5-1c.592-2.936 1.592-5.603 3-8Z"/><path style="opacity:1" fill="#d5d5d4" d="M257.5 2.5c2.333-1.333 4.667-1.333 7 0-4 .333-4 .667 0 1v6c-1.238 1.714-1.905 3.714-2 6-4.993-.416-9.993-.75-15-1 .054-2.132 1.054-3.465 3-4h8c.306-2.885-.027-5.552-1-8Z"/><path style="opacity:1" fill="#b0b0af" d="M280.5 16.5c-.333-6.667-.667-6.667-1 0a160.33 160.33 0 0 1-17-1c.095-2.286.762-4.286 2-6 .333 1.333.667 1.333 1 0h7c-1.792.81-3.792 1.31-6 1.5 2.31.497 4.643.663 7 .5.295-2.235-.039-4.235-1-6v-3c3.045.008 6.045.341 9 1 .318 4.532-.015 8.866-1 13Z"/><path style="opacity:1" fill="#716e6d" d="M139.5 8.5v4c1.699-.16 3.366.007 5 .5a18.437 18.437 0 0 1-6 .5v-7c-1.967-.24-3.801.094-5.5 1a40.476 40.476 0 0 0 .5 13c-1.193-.47-1.86-1.47-2-3a54.855 54.855 0 0 1-1-12 41.743 41.743 0 0 0 9-1v4Z"/><path style="opacity:1" fill="#807e7d" d="M226.5-.5h9v8h6v-7a40.94 40.94 0 0 1 9 .5c.237 2.288.237 4.788 0 7.5h6l1-6c.973 2.448 1.306 5.115 1 8h-8c-.891-.761-1.558-1.761-2-3 .546-1.635.88-3.301 1-5h-6a11.987 11.987 0 0 1-1 6c-2.973 1.009-5.973 1.009-9 0-.256-2.293.077-4.46 1-6.5a24.936 24.936 0 0 0-7-.5 18.452 18.452 0 0 1-.5 6 8.43 8.43 0 0 1-.5-4v-4Z"/><path style="opacity:1" fill="#726f6d" d="M264.5 2.5c1.149.291 1.816 1.124 2 2.5a53.54 53.54 0 0 1-1 4.5c-.333 1.333-.667 1.333-1 0v-6c-4-.333-4-.667 0-1Z"/><path style="opacity:1" fill="#514e4c" d="M272.5 5.5c.961 1.765 1.295 3.765 1 6a24.939 24.939 0 0 1-7-.5c2.208-.19 4.208-.69 6-1.5v-4Z"/><path style="opacity:1" fill="#b3b3b2" d="M156.5 11.5a16.336 16.336 0 0 1-2 5 246.964 246.964 0 0 0-19 2.5c.752.67 1.086 1.504 1 2.5a5.728 5.728 0 0 0-3-1 40.476 40.476 0 0 1-.5-13c1.699-.906 3.533-1.24 5.5-1v7a18.437 18.437 0 0 0 6-.5 12.935 12.935 0 0 0-5-.5v-4c.904.709 1.237 1.709 1 3h6c.784-1.24 1.451-3.24 2-6a9.107 9.107 0 0 1 5-1v7h3Z"/><path style="opacity:1" fill="#bdbdbc" d="M141.5 30.5v-7h-3c-.734-1.208-1.067-2.541-1-4a1489.22 1489.22 0 0 0 44-5v3a442.926 442.926 0 0 0-39 4c.31 3.213-.023 6.213-1 9Z"/><path style="opacity:1" fill="#5d5a58" d="M183.5 13.5v5h-5c-.722.418-1.222 1.084-1.5 2a14.443 14.443 0 0 0-5-1 1402.57 1402.57 0 0 0-17.5 2 72.045 72.045 0 0 1-11 1c-.458 8.331-.958 16.664-1.5 25-.71-1.473-1.876-2.14-3.5-2 1.782 4.083 2.782 8.416 3 13a18.452 18.452 0 0 1-.5 6 8.43 8.43 0 0 1-.5-4 254.876 254.876 0 0 1-14 2 10.777 10.777 0 0 0 2 6 37.974 37.974 0 0 1 12-2v6a41.58 41.58 0 0 1 8-1c-1.97-10.698-.803-21.03 3.5-31-.217 3.347-.884 6.68-2 10-.5 6.658-.666 13.325-.5 20h3v-3h2c.652 1.225 1.819 1.892 3.5 2a64.823 64.823 0 0 1 12.5-1c-6.268 1.708-13.935 3.041-23 4a353.748 353.748 0 0 0-44 11v-1a10.122 10.122 0 0 0 4-1.5c-1.445-1.71-2.278-3.544-2.5-5.5 1.46 1.966 3.127 3.632 5 5 2.151-.265 3.818-1.265 5-3 2.538 1.43 4.372.764 5.5-2a10.256 10.256 0 0 0-1.5-4 29.87 29.87 0 0 0-7 3 84.664 84.664 0 0 1-4.5-7.5 91.775 91.775 0 0 1 9-3c.354-1.626.354-3.459 0-5.5a54.882 54.882 0 0 0-10 2.5 12 12 0 0 1-1 3.5 16.336 16.336 0 0 1-2-5c4.574.928 5.741-.739 3.5-5-2.609-1.408-4.442-.742-5.5 2-1.406-.473-2.073-1.473-2-3a218.402 218.402 0 0 0 20-6 231.79 231.79 0 0 0 21-4 31.117 31.117 0 0 0 1-11h-5c.268 1.599-.066 2.932-1 4a20.691 20.691 0 0 1-1-5 51.648 51.648 0 0 0 7-1c.977-2.787 1.31-5.787 1-9a442.926 442.926 0 0 1 39-4v-3a1489.22 1489.22 0 0 1-44 5c-.067 1.459.266 2.792 1 4-1.333 0-2-.667-2-2 .086-.996-.248-1.83-1-2.5a246.964 246.964 0 0 1 19-2.5 385.071 385.071 0 0 1 29-3Z"/><path style="opacity:1" fill="#b4b4b3" d="M178.5 18.5c.017 2.065.35 4.065 1 6h-1c-.617-.11-1.117-.444-1.5-1-1.202 2.177-1.702 4.51-1.5 7-.814-2.131-1.314-4.464-1.5-7-1.493-2.06-3.326-2.393-5.5-1a18.353 18.353 0 0 1 2 9c-.891.761-1.558 1.761-2 3l4 5c-1.258-.516-2.258.15-3 2a40.935 40.935 0 0 1 5 7 7.492 7.492 0 0 0 .5-5c1.188 1.063 1.688 2.397 1.5 4a175.85 175.85 0 0 1 4 18l-1 2c-1.398-6.284-3.398-12.284-6-18-1.19-2.37-2.857-4.37-5-6-.597-.639-1.43-.972-2.5-1a151.069 151.069 0 0 1-10.5 1.5c-1.597 2.188-1.931 4.354-1 6.5 1.419.951 3.085 1.285 5 1-2.107.968-4.441 1.302-7 1v18h-3c-.166-6.675 0-13.342.5-20 1.116-3.32 1.783-6.653 2-10-4.303 9.97-5.47 20.302-3.5 31a41.58 41.58 0 0 0-8 1v-6a37.974 37.974 0 0 0-12 2 10.777 10.777 0 0 1-2-6 254.876 254.876 0 0 0 14-2 8.43 8.43 0 0 0 .5 4c.495-1.973.662-3.973.5-6a625.23 625.23 0 0 0 9.5-20 144.555 144.555 0 0 1 3.5-17 1402.57 1402.57 0 0 1 17.5-2c1.764.044 3.431.378 5 1 .278-.916.778-1.582 1.5-2Z"/><path style="opacity:1" fill="#21201f" d="M175.5 30.5c-1.379 2.097-3.045 2.43-5 1 .1-3.167-.567-6.167-2-9 2.174-1.393 4.007-1.06 5.5 1 .186 2.536.686 4.869 1.5 7Z"/><path style="opacity:1" fill="#d0d0cf" d="M178.5 24.5a244.761 244.761 0 0 0 9 29c.793 4.38 1.793 8.714 3 13a41.742 41.742 0 0 0-9 1c.03-7.21-1.637-13.877-5-20 .188-1.603-.312-2.937-1.5-4a7.492 7.492 0 0 1-.5 5 40.935 40.935 0 0 0-5-7c.742-1.85 1.742-2.516 3-2l-4-5c.442-1.239 1.109-2.239 2-3 1.955 1.43 3.621 1.097 5-1-.202-2.49.298-4.823 1.5-7 .383.556.883.89 1.5 1Z"/><path style="opacity:1" fill="#d3d3d2" d="M250.5 19.5c6.315.61 12.649.943 19 1a32.462 32.462 0 0 0 .5 8c.494-1.634.66-3.3.5-5a67.862 67.862 0 0 1 2 7c-1.869 2.135-2.536 4.802-2 8 .322 6.328-1.344 11.995-5 17a31.284 31.284 0 0 0-1.5-10c-.424-2.525-1.59-4.525-3.5-6-4.2-6.774-9.7-7.774-16.5-3 1.558-5.803 3.725-11.47 6.5-17Z"/><path style="opacity:1" fill="#171717" d="M261.5 22.5h4v11h-4v-11Z"/><path style="opacity:1" fill="#d8d8d7" d="M346.5 37.5a173.333 173.333 0 0 0-3 4c-4.281-.958-7.614-3.124-10-6.5.362-1.434 1.028-2.6 2-3.5a16.51 16.51 0 0 1 2.5-5c1.584 1.361 3.418 2.028 5.5 2-.086 2.177-.753 4.177-2 6 1.86.825 3.526 1.825 5 3Z"/><path style="opacity:1" fill="#878584" d="M94.5 32.5c-.438.065-.772-.101-1-.5 2.103-.853 2.103-2.02 0-3.5a42.28 42.28 0 0 0-3.5-8l-5 3c-.496 1.535-.33 3.035.5 4.5-4.193 5.1-7.527 4.6-10-1.5l-4 2c-.607-.124-.94-.457-1-1l6-3c1.103 4.91 3.77 6.076 8 3.5-1.536-1.6-2.036-3.433-1.5-5.5a108.53 108.53 0 0 0 7.5-4 43.289 43.289 0 0 1 6 12.5c-.336 1.03-1.003 1.53-2 1.5Z"/><path style="opacity:1" fill="#d2d1d1" d="M93.5 28.5c-.674 1.524-1.674 2.858-3 4l-12 6c-4.39.903-8.39 2.57-12 5-4.201-.86-4.868-2.86-2-6a19.215 19.215 0 0 0 6.5-3c.013-2.677-.82-4.344-2.5-5-.543-.06-.876-.393-1-1 .825-.886 1.825-1.219 3-1 .06.543.393.876 1 1l4-2c2.473 6.1 5.807 6.6 10 1.5-.83-1.465-.996-2.965-.5-4.5l5-3a42.28 42.28 0 0 1 3.5 8Z"/><path style="opacity:1" fill="#55524f" d="M272.5 30.5h2c-.709.904-1.709 1.237-3 1 .302 2.56-.032 4.893-1 7-.536-3.198.131-5.865 2-8Z"/><path style="opacity:1" fill="#b7b6b6" d="M250.5 19.5c-2.775 5.53-4.942 11.197-6.5 17 6.8-4.774 12.3-3.774 16.5 3 4.363 10.803 5.029 21.803 2 33-1.291.237-2.291-.096-3-1 2.669-8.9 2.503-17.9-.5-27a142.621 142.621 0 0 0-12.5-2 2.429 2.429 0 0 0-.5-2c-6.571 7.362-10.237 16.029-11 26-.718.95-1.551 1.117-2.5.5a221.765 221.765 0 0 1 5.5-22.5 65.961 65.961 0 0 0-6.5 23h-7c.25-2.714.417-5.38.5-8-3.057.95-6.223 1.284-9.5 1v-5h10c.545 3.672.878 3.338 1-1a1302.863 1302.863 0 0 0 10-35c4.656-1.069 9.322-1.069 14 0Z"/><path style="opacity:1" fill="#1f1f1d" d="M239.5 20.5c1.788-.285 3.455.048 5 1a44.364 44.364 0 0 0-2 10h-4a49.367 49.367 0 0 1 1-11Z"/><path style="opacity:1" fill="#797775" d="M323.5 19.5a22.588 22.588 0 0 1 8 4l-2 4a32.367 32.367 0 0 0 4.5 3 26.848 26.848 0 0 1 3.5-6 108.438 108.438 0 0 0 7.5 4c.14 1.756-.36 3.422-1.5 5 2.178 2.538 4.178 2.538 6 0 1.07 2.473.07 3.807-3 4-1.474-1.175-3.14-2.175-5-3 1.247-1.823 1.914-3.823 2-6-2.082.028-3.916-.639-5.5-2a16.51 16.51 0 0 0-2.5 5c-3.016-.34-5.682-1.507-8-3.5 1.265-1.337 1.765-2.837 1.5-4.5-2.687-1.147-4.521-2.48-5.5-4Z"/><path style="opacity:1" fill="#787574" d="M64.5 37.5c-1.745-5.884-4.745-6.384-9-1.5 1.565 1.506 1.899 3.006 1 4.5a19.228 19.228 0 0 0-3-5 59.006 59.006 0 0 1 9-5 15.681 15.681 0 0 1 2 4c2.097 1.248 3.763.748 5-1.5a14.076 14.076 0 0 1-1-3.5c1.68.656 2.513 2.323 2.5 5a19.215 19.215 0 0 1-6.5 3Z"/><path style="opacity:1" fill="#aaa9a9" d="M119.5 47.5c.442-4.102 1.942-7.769 4.5-11 1.011-.837 2.178-1.17 3.5-1-.285 1.788.048 3.455 1 5 3.204-.605 5.538-1.605 7-3v-1c.934-1.068 1.268-2.401 1-4h5a31.117 31.117 0 0 1-1 11 231.79 231.79 0 0 1-21 4Z"/><path style="opacity:1" fill="#a6a5a4" d="M154.5 21.5a144.555 144.555 0 0 0-3.5 17 625.23 625.23 0 0 1-9.5 20c-.218-4.584-1.218-8.917-3-13 1.624-.14 2.79.527 3.5 2 .542-8.336 1.042-16.669 1.5-25a72.045 72.045 0 0 0 11-1Z"/><path style="opacity:1" fill="#161616" d="M147.5 24.5h4v10h-4v-10Z"/><path style="opacity:1" fill="#7c7a79" d="M296.5 40.5c-1.068.934-2.401 1.268-4 1a9.107 9.107 0 0 1 1-5 18.399 18.399 0 0 0-7-2v5a34.084 34.084 0 0 1-8-1.5 4.932 4.932 0 0 1 3-.5h3c-.209-2.214.624-3.881 2.5-5 3.079.443 5.912 1.443 8.5 3-1.509 2.12-1.176 3.787 1 5Z"/><path style="opacity:1" fill="#c1c0c0" d="M328.5 40.5a26692.41 26692.41 0 0 1-10 23c1.2.792 2.533.792 4 0 5.593-1.943 11.259-2.277 17-1 1.725.343 2.225 1.343 1.5 3l-1 2c-1.525-.388-3.192-.388-5 0a211.779 211.779 0 0 1-7.5 19c.065-.438-.101-.772-.5-1-.45 2.606-1.95 3.94-4.5 4-2.588-2.125-5.588-3.458-9-4-1.1-1.058-2.434-1.892-4-2.5.556-.383.889-.883 1-1.5-.997.03-1.664-.47-2-1.5 1.204-5.384 4.204-9.55 9-12.5l-.5-1c-5.43 3.594-9.597 8.26-12.5 14a2.427 2.427 0 0 1-2-.5 935.643 935.643 0 0 0 13-29.5 69.361 69.361 0 0 0 8-11.5c2.035-.599 3.701-.099 5 1.5Z"/><path style="opacity:1" fill="#92908f" d="M135.5 37.5c-1.462 1.395-3.796 2.395-7 3-.952-1.545-1.285-3.212-1-5-1.322-.17-2.489.163-3.5 1-2.558 3.231-4.058 6.898-4.5 11a218.402 218.402 0 0 1-20 6 10.174 10.174 0 0 0-3-3c-1.588-4.183-3.92-7.85-7-11-.06-.543-.393-.876-1-1-1.831 1.43-3.831 1.93-6 1.5 2.968-2.062 5.968-2.895 9-2.5a10.123 10.123 0 0 0 1.5 4c3.067.695 5.4 2.362 7 5a10.017 10.017 0 0 0 4.5-2.5c-1.247-1.494-1.247-2.994 0-4.5a18.07 18.07 0 0 1 8-2c.343 3.938 2.343 4.938 6 3 1.181-1.635 1.181-3.302 0-5a26.76 26.76 0 0 1 10-2c-.269 1.929.231 3.595 1.5 5 1.699-.906 3.533-1.24 5.5-1Z"/><path style="opacity:1" fill="#b3b2b1" d="M323.5 19.5c.979 1.52 2.813 2.853 5.5 4 .265 1.663-.235 3.163-1.5 4.5 2.318 1.993 4.984 3.16 8 3.5-.972.9-1.638 2.066-2 3.5 2.386 3.376 5.719 5.542 10 6.5a173.333 173.333 0 0 1 3-4c3.07-.193 4.07-1.527 3-4 .91-3.314 2.243-3.648 4-1-.438-.065-.772.101-1 .5 2.41.758 3.41 2.425 3 5-.252 2.395-1.252 4.395-3 6l-8-1 4 2a4.451 4.451 0 0 1-2 1.5c-1.823-1.247-3.823-1.914-6-2-2.741-.207-5.074-1.207-7-3a311.784 311.784 0 0 0-5-3.5l4-1a134.023 134.023 0 0 1-14-6.5l4-8c-.124-.607-.457-.94-1-1-.219-1.175.114-2.175 1-3 .607.124.94.457 1 1Z"/><path style="opacity:1" fill="#d8d8d8" d="M328.5 40.5c1.617.538 3.284.871 5 1 1.926 1.793 4.259 2.793 7 3a30.968 30.968 0 0 0 2 2 114.396 114.396 0 0 0-6 13 42.717 42.717 0 0 1-9 1.5c-1.991.374-3.658 1.207-5 2.5-1.467.792-2.8.792-4 0a26692.41 26692.41 0 0 0 10-23Z"/><path style="opacity:1" fill="#c4c4c3" d="M89.5 39.5c3.08 3.15 5.412 6.817 7 11a153.104 153.104 0 0 1-5 13c-3.369-2.01-7.036-3.01-11-3a291.763 291.763 0 0 1 9-21Z"/><path style="opacity:1" fill="#d1d0d0" d="M168.5 43.5c2.143 1.63 3.81 3.63 5 6a106.106 106.106 0 0 1 3 14c-.085 1.833-.752 3.166-2 4-1.599-.268-2.932.066-4 1a64.823 64.823 0 0 0-12.5 1c-1.681-.108-2.848-.775-3.5-2 5.007-.89 10.007-1.89 15-3a280.168 280.168 0 0 1-16-.5 308.27 308.27 0 0 1 16-3.5c-5.273.093-10.606-.24-16-1 5.355-1.167 10.688-2.334 16-3.5-5.38.03-10.714-.137-16-.5a268.275 268.275 0 0 1 16-3.5 50.442 50.442 0 0 0-10-.5c-1.915.285-3.581-.049-5-1a159.41 159.41 0 0 1 15-3c-4.7-.616-9.366-.95-14-1a62.909 62.909 0 0 1 13-3Z"/><path style="opacity:1" fill="#72706e" d="M321.5 21.5c.543.06.876.393 1 1l-4 8a134.023 134.023 0 0 0 14 6.5l-4 1c1.733 1.189 3.4 2.356 5 3.5a20.676 20.676 0 0 1-5-1c-1.299-1.599-2.965-2.099-5-1.5a69.361 69.361 0 0 1-8 11.5c-.086-.996.248-1.83 1-2.5-2.419-.29-3.753-1.124-4-2.5 2.381-1.808 5.048-3.308 8-4.5l2-3c-1.467-1.097-2.301-2.597-2.5-4.5a26.596 26.596 0 0 1-3.5-2 717.118 717.118 0 0 1 5-10Z"/><path style="opacity:1" fill="#a9a8a8" d="M131.5 46.5h6v6a79.632 79.632 0 0 0-11 2c-2.82-1.279-3.487-3.279-2-6a64.632 64.632 0 0 0 7-2Z"/><path style="opacity:1" fill="#2d2927" d="M168.5 43.5a62.909 62.909 0 0 0-13 3c4.634.05 9.3.384 14 1a159.41 159.41 0 0 0-15 3c-.931-2.146-.597-4.312 1-6.5 3.519-.377 7.019-.877 10.5-1.5 1.07.028 1.903.361 2.5 1Z"/><path style="opacity:1" fill="#21201f" d="M335.5 46.5c1.495-.085 2.495.581 3 2-.956 2.939-2.623 5.272-5 7l-2-1 4-8Z"/><path style="opacity:1" fill="#989796" d="M353.5 32.5c5.197.318 6.697 2.651 4.5 7a46.936 46.936 0 0 1-4.5 8 18.085 18.085 0 0 1-3.5-2c-1.171 2.116-2.671 2.782-4.5 2a103.572 103.572 0 0 0-6 15c-5.741-1.277-11.407-.943-17 1 1.342-1.293 3.009-2.126 5-2.5a42.717 42.717 0 0 0 9-1.5 114.396 114.396 0 0 1 6-13 30.968 30.968 0 0 1-2-2c2.177.086 4.177.753 6 2a4.451 4.451 0 0 0 2-1.5l-4-2 8 1c1.748-1.605 2.748-3.605 3-6 .41-2.575-.59-4.242-3-5 .228-.399.562-.565 1-.5Z"/><path style="opacity:1" fill="#a3a2a2" d="M117.5 49.5h5a9.107 9.107 0 0 0 1 5 70.511 70.511 0 0 1-12.5 4c-1.713-1.454-2.88-3.288-3.5-5.5 3.48-1.103 6.813-2.27 10-3.5Z"/><path style="opacity:1" fill="#aaa9a9" d="M303.5 50.5c.763.768 1.763 1.268 3 1.5a37.151 37.151 0 0 0-2 4.5c-2.544.45-5.21.45-8 0-1.714-1.238-3.714-1.905-6-2l1-6a76.28 76.28 0 0 0 12 2Z"/><path style="opacity:1" fill="#a6a5a4" d="M93.5 28.5c2.103 1.48 2.103 2.647 0 3.5.228.399.562.565 1 .5-.277 2.228-1.277 3.895-3 5-3.032-.395-6.032.438-9 2.5 2.169.43 4.169-.07 6-1.5.607.124.94.457 1 1a291.763 291.763 0 0 0-9 21c-2.58.417-4.746-.25-6.5-2-.399.228-.565.562-.5 1a227.337 227.337 0 0 1-5.5-12c-.414.457-.914.79-1.5 1-1.776-3.639-4.11-3.972-7-1a32.27 32.27 0 0 1-3-7c.899-1.494.565-2.994-1-4.5 4.255-4.884 7.255-4.384 9 1.5-2.868 3.14-2.201 5.14 2 6 4.39-.903 8.39-2.57 12-5l12-6c1.326-1.142 2.326-2.476 3-4Z"/><path style="opacity:1" fill="#22211f" d="M76.5 45.5c2.253 2.317 3.92 5.15 5 8.5a4.452 4.452 0 0 1-2 1.5 29.465 29.465 0 0 1-5-7.5c.88-.708 1.547-1.542 2-2.5Z"/><path style="opacity:1" fill="#615e5c" d="M78.5 38.5c-3.61 2.43-7.61 4.097-12 5 3.61-2.43 7.61-4.097 12-5Z"/><path style="opacity:1" fill="#d7d7d6" d="M96.5 50.5a10.174 10.174 0 0 1 3 3c-.073 1.527.594 2.527 2 3-.073 1.527.594 2.527 2 3a16.336 16.336 0 0 0 2 5l-3.5 7c-1.422-2.138-3.255-3.305-5.5-3.5 1.655 1.444 2.322 3.278 2 5.5l-4-2c-3.3-4.151-7.633-6.485-13-7 .47-1.194 1.47-1.86 3-2 2.424-.352 3.924.648 4.5 3a11.362 11.362 0 0 1 3.5-1.5c-.228-.399-.562-.565-1-.5a153.104 153.104 0 0 0 5-13Z"/><path style="opacity:1" fill="#302d2b" d="M245.5 43.5c0-.667.333-1 1-1 4.228.487 8.395 1.153 12.5 2 3.003 9.1 3.169 18.1.5 27h-4c0-.667.333-1 1-1h3v-3c-21.326-2.82-21.326-3.987 0-3.5a244.392 244.392 0 0 0-15-3.5l2.5-1a36.248 36.248 0 0 0 13.5.5c-5.353-1.335-10.686-2.668-16-4 5.316.263 10.649.263 16 0a2962.06 2962.06 0 0 0-16-4 295.69 295.69 0 0 0 15-.5 3.647 3.647 0 0 0-1-1.5 52.467 52.467 0 0 1-14-3c18.035 1.219 18.368.052 1-3.5Z"/><path style="opacity:1" fill="#9a9998" d="M103.5 59.5c-1.406-.473-2.073-1.473-2-3 1.058-2.742 2.891-3.408 5.5-2 2.241 4.261 1.074 5.928-3.5 5Z"/><path style="opacity:1" fill="#a9a8a8" d="M135.5 53.5h5v6c-2.292-.256-4.459.077-6.5 1a10.1 10.1 0 0 1-1.5-6c1.291.237 2.291-.096 3-1Z"/><path style="opacity:1" fill="#a4a4a3" d="M125.5 55.5h6c-.214 1.644.12 3.144 1 4.5a457.136 457.136 0 0 0-13 3.5c-1.586-1.673-2.253-3.673-2-6 2.928-.065 5.595-.732 8-2Z"/><path style="opacity:1" fill="#b1b0b0" d="m296.5 56.5-1 6h-5c-2.719-1.413-5.719-2.08-9-2a4.934 4.934 0 0 0-.5-3c-.519 1.016-1.353 1.682-2.5 2a20.227 20.227 0 0 0-5-1 9.86 9.86 0 0 1 1-6 15.42 15.42 0 0 0 7 1 4.934 4.934 0 0 0 .5 3c.519-1.016 1.353-1.682 2.5-2a62.903 62.903 0 0 0 12 2Z"/><path style="opacity:1" fill="#b5b4b4" d="M274.5 30.5h4v6c1.291-.237 2.291.096 3 1a4.932 4.932 0 0 0-3 .5 34.084 34.084 0 0 0 8 1.5v-5c2.46.199 4.793.865 7 2a9.107 9.107 0 0 0-1 5c1.599.268 2.932-.066 4-1 1.291-.237 2.291.096 3 1a2.427 2.427 0 0 0-2 .5 8.435 8.435 0 0 0 4 .5c.343-3.938 2.343-4.938 6-3 1.968 3.915 1.968 7.582 0 11h-4c-9.974-3.408-20.308-5.74-31-7-1.34-.794-1.507 1.206-.5 6 .672-5.73 1.672-6.063 3-1a4.934 4.934 0 0 0 .5-3c4.984.775 9.984 1.442 15 2l-1 6a74.08 74.08 0 0 1-12-1.5c-1.561-.318-2.728-1.15-3.5-2.5a19.883 19.883 0 0 0-1.5 8c.635 5.652.968 11.318 1 17 4.859 1.561 6.526 1.561 5 0-.11-2.559.556-4.892 2-7a37.974 37.974 0 0 0 12 2c.085 3.247-.915 6.08-3 8.5a33.543 33.543 0 0 0 10 2.5c1.062 1.6 1.062 3.266 0 5a478.646 478.646 0 0 0-42-10c2.489.26 4.156-.74 5-3a8.435 8.435 0 0 0 4-.5 4.451 4.451 0 0 1-2-1.5 61.234 61.234 0 0 0 1-15c3.656-5.005 5.322-10.672 5-17 .968-2.107 1.302-4.44 1-7 1.291.237 2.291-.096 3-1Z"/><path style="opacity:1" fill="#817f7e" d="M80.5 60.5c3.964-.01 7.631.99 11 3 .438-.065.772.101 1 .5-1.266.31-2.433.81-3.5 1.5-.576-2.352-2.076-3.352-4.5-3-1.53.14-2.53.806-3 2-1.9-.254-2.567.08-2 1 .256 2.437.923 4.77 2 7-.124.607-.457.94-1 1a69.516 69.516 0 0 0-2.5-6c-1.008-.482-2.175-.648-3.5-.5l-3-3c1.537-1.11 2.204-2.61 2-4.5-.065-.438.101-.772.5-1 1.754 1.75 3.92 2.417 6.5 2Z"/><path style="opacity:1" fill="#a7a6a6" d="M290.5 62.5c3.501 1.3 7.167 2.466 11 3.5a29.555 29.555 0 0 0-2.5 4.5c-2.041-.923-4.208-1.256-6.5-1-4.259-.28-5.926-2.614-5-7h3Z"/><path style="opacity:1" fill="#2d2b28" d="M159.5 51.5c3.35-.165 6.683.002 10 .5a268.275 268.275 0 0 0-16 3.5c5.286.363 10.62.53 16 .5-5.312 1.166-10.645 2.333-16 3.5 5.394.76 10.727 1.093 16 1a308.27 308.27 0 0 0-16 3.5c5.456.323 10.789.49 16 .5a358.673 358.673 0 0 1-15 3h-2v-15c2.559.302 4.893-.032 7-1Z"/><path style="opacity:1" fill="#494745" d="M81.5 64.5c5.367.515 9.7 2.849 13 7a23.954 23.954 0 0 0-9 3l-1-.5a22.763 22.763 0 0 1 5-4 52.61 52.61 0 0 1-7 0 12.417 12.417 0 0 0 4-2.5c-2.108-1.444-4.441-2.11-7-2-.567-.92.1-1.254 2-1Z"/><path style="opacity:1" fill="#a0a09f" d="M121.5 63.5h4c-.214 1.644.12 3.144 1 4.5a98.871 98.871 0 0 1-11.5 3.5c-2.248-1.237-2.748-2.903-1.5-5a468.71 468.71 0 0 0 8-3Z"/><path style="opacity:1" fill="#6b6967" d="M280.5 16.5c-.683 1.677-2.017 2.343-4 2v3c-2.582-.475-4.582.192-6 2a12.93 12.93 0 0 1-.5 5 32.462 32.462 0 0 1-.5-8 218.138 218.138 0 0 1-19-1c-4.678-1.069-9.344-1.069-14 0a1302.863 1302.863 0 0 1-10 35c-.122 4.338-.455 4.672-1 1h-10v5c3.277.284 6.443-.05 9.5-1-.083 2.62-.25 5.286-.5 8h7a65.961 65.961 0 0 1 6.5-23 221.765 221.765 0 0 0-5.5 22.5c.949.617 1.782.45 2.5-.5.763-9.971 4.429-18.638 11-26 .464.594.631 1.261.5 2-.667 0-1 .333-1 1-5.939 7.142-8.939 15.475-9 25h-14a1279.382 1279.382 0 0 0-48-1c1.248-.834 1.915-2.167 2-4a106.106 106.106 0 0 0-3-14c2.602 5.716 4.602 11.716 6 18l1-2a175.85 175.85 0 0 0-4-18c3.363 6.123 5.03 12.79 5 20a41.742 41.742 0 0 1 9-1 139.818 139.818 0 0 1-3-13 244.761 244.761 0 0 1-9-29h1c0 1.333.667 2 2 2h7v5h7v-6h10v6h5v-6h10v6h6c-1.513 1.01-3.847 1.343-7 1 .765-5.406-1.569-7.406-7-6v6h-9v-5h-7v5h-9v-5h-7l3 12a353.507 353.507 0 0 1 46-.5 58.295 58.295 0 0 0 3-11.5 12.935 12.935 0 0 1-5-.5c2.208-.19 4.208-.69 6-1.5a51.56 51.56 0 0 1 1-7h-5v-4c-1.983.343-3.317-.323-4-2a734.322 734.322 0 0 1 22 2c5.007.25 10.007.584 15 1a160.33 160.33 0 0 0 17 1c.333-6.667.667-6.667 1 0Z"/><path style="opacity:1" fill="#dededd" d="M207.5 62.5h16c.17 1.322-.163 2.489-1 3.5-4.989.5-9.989.666-15 .5v-4Z"/><path style="opacity:1" fill="#cececd" d="M191.5 62.5h15v4h-15v-4Z"/><path style="opacity:1" fill="#d9d8d8" d="M200.5 55.5h13v5h-13v-5Z"/><path style="opacity:1" fill="#cacac9" d="M188.5 56.5c3.125-.98 6.458-1.313 10-1v5a32.438 32.438 0 0 1-8-.5 19.588 19.588 0 0 0-2-3.5Z"/><path style="opacity:1" fill="#d2d2d1" d="M226.5 54.5h-5v-6a9.864 9.864 0 0 1 6 1 9.107 9.107 0 0 0-1 5Z"/><path style="opacity:1" fill="#dadad9" d="M207.5 47.5h13v6h-13v-6Z"/><path style="opacity:1" fill="#cfcece" d="M201.5 47.5h5v6h-13v-5c2.885.306 5.552-.027 8-1Z"/><path style="opacity:1" fill="#c3c2c2" d="M187.5 53.5c.214-1.644-.12-3.144-1-4.5a18.437 18.437 0 0 1 6-.5v6c-1.792.134-3.458-.2-5-1Z"/><path style="opacity:1" fill="#dddddc" d="M215.5 40.5c4.714-.327 9.38.007 14 1a9.107 9.107 0 0 0-1 5h-13v-6Z"/><path style="opacity:1" fill="#d8d8d7" d="M200.5 40.5h13v6h-13v-6Z"/><path style="opacity:1" fill="#cacac9" d="M184.5 40.5h14v6h-13l-1-6Z"/><path style="opacity:1" fill="#ededec" d="M181.5 26.5c2.448-.973 5.115-1.306 8-1v5h5c-.284-1.915.049-3.581 1-5v6h-7v-5h-7Z"/><path style="opacity:1" fill="#d2d2d1" d="M233.5 25.5c-1.792.81-3.792 1.31-6 1.5 1.634.494 3.301.66 5 .5a58.295 58.295 0 0 1-3 11.5 353.507 353.507 0 0 0-46 .5l-3-12h7v5h9v-5h7v5h9v-6c5.431-1.406 7.765.594 7 6 3.153.343 5.487.01 7-1v-6h7Z"/><path style="opacity:1" fill="#bdbcbc" d="M230.5 14.5a557.823 557.823 0 0 1 44 4 227.254 227.254 0 0 1-40-2c-1.833-.085-3.166-.752-4-2Z"/><path style="opacity:1" fill="#a6a5a5" d="M137.5 67.5c1.149.291 1.816 1.124 2 2.5-1.009 4.351-2.342 4.518-4 .5.442-1.239 1.109-2.239 2-3Z"/><path style="opacity:1" fill="#2d2b29" d="M322.5 68.5c.311-.978.978-1.644 2-2 2.13.967 4.13 2.134 6 3.5-2.72.045-5.386-.455-8-1.5Z"/><path style="opacity:1" fill="#b4b3b2" d="M103.5 82.5c-.61-1.934-1.61-3.6-3-5-1.1-1.105-1.767-2.438-2-4 .322-2.222-.345-4.056-2-5.5 2.245.195 4.078 1.362 5.5 3.5l3.5-7a12 12 0 0 0 1-3.5 54.882 54.882 0 0 1 10-2.5c.354 2.041.354 3.874 0 5.5a91.775 91.775 0 0 0-9 3 84.664 84.664 0 0 0 4.5 7.5 29.87 29.87 0 0 1 7-3 10.256 10.256 0 0 1 1.5 4c-1.128 2.764-2.962 3.43-5.5 2-1.182 1.735-2.849 2.735-5 3-1.873-1.368-3.54-3.034-5-5 .222 1.956 1.055 3.79 2.5 5.5a10.122 10.122 0 0 1-4 1.5Z"/><path style="opacity:1" fill="#a4a3a2" d="M131.5 68.5h3c.239 1.967-.094 3.8-1 5.5a227.513 227.513 0 0 1-12 2.5c-.239-1.967.094-3.8 1-5.5 3.242-.406 6.242-1.24 9-2.5Z"/><path style="opacity:1" fill="#d5d5d4" d="M245.5 43.5c17.368 3.552 17.035 4.719-1 3.5a52.467 52.467 0 0 0 14 3c.457.414.791.914 1 1.5a295.69 295.69 0 0 1-15 .5 2962.06 2962.06 0 0 1 16 4c-5.351.263-10.684.263-16 0 5.314 1.332 10.647 2.665 16 4-4.529.68-9.029.513-13.5-.5l-2.5 1a244.392 244.392 0 0 1 15 3.5c-21.326-.487-21.326.68 0 3.5v3h-3c-5.435-1.675-11.102-2.175-17-1.5a402.118 402.118 0 0 0 16 2.5h4c.709.904 1.709 1.237 3 1-.844 2.26-2.511 3.26-5 3a704.477 704.477 0 0 0-55-4c.304-.65.637-1.317 1-2a91.123 91.123 0 0 1 19-1h14c.061-9.525 3.061-17.858 9-25Z"/><path style="opacity:1" fill="#807e7d" d="M256.5 70.5c-.667 0-1 .333-1 1a402.118 402.118 0 0 1-16-2.5c5.898-.675 11.565-.175 17 1.5Z"/><path style="opacity:1" fill="#5a5755" d="M303.5 50.5h4c.763.768 1.763 1.268 3 1.5-3.112.454-4.778 2.287-5 5.5 1.512 1.362 3.012 1.696 4.5 1 .563 1.225.23 2.225-1 3-3.545-2.016-7.378-3.349-11.5-4l-1 6c2.98.12 5.813.787 8.5 2 .811-1.46 1.645-1.793 2.5-1a99.438 99.438 0 0 0-6.5 10 9.457 9.457 0 0 0-1.5-2.5c-5.27-2.423-7.437-.59-6.5 5.5 1.667 1.333 3.333 1.333 5 0l1.5 3a33.543 33.543 0 0 1-10-2.5c2.085-2.42 3.085-5.253 3-8.5 2.292-.256 4.459.077 6.5 1 .707-1.58 1.54-3.08 2.5-4.5a125.559 125.559 0 0 1-11-3.5h5l1-6c2.79.45 5.456.45 8 0a37.151 37.151 0 0 1 2-4.5c-1.237-.232-2.237-.732-3-1.5Z"/><path style="opacity:1" fill="#2c2a27" d="M322.5 68.5a59.488 59.488 0 0 0 7 5.5 173.785 173.785 0 0 1-11-2.5c.762-1.762 2.096-2.762 4-3Z"/><path style="opacity:1" fill="#5e5c5a" d="M260.5 39.5c1.91 1.475 3.076 3.475 3.5 6a31.284 31.284 0 0 1 1.5 10 61.234 61.234 0 0 1-1 15 4.451 4.451 0 0 0 2 1.5 8.435 8.435 0 0 1-4 .5c3.029-11.197 2.363-22.197-2-33Z"/><path style="opacity:1" fill="#2e2c2a" d="m94.5 71.5 4 2c.233 1.562.9 2.895 2 4a78.055 78.055 0 0 1-12 3.5 64.717 64.717 0 0 1 9-6l-12 3a937.25 937.25 0 0 0 9-6.5Z"/><path style="opacity:1" fill="#585654" d="M196.5 72.5c.992-.172 1.658.162 2 1-8.343.359-16.676.525-25 .5a125.502 125.502 0 0 1 23-1.5Z"/><path style="opacity:1" fill="#5c5957" d="M303.5 50.5a76.28 76.28 0 0 1-12-2l-1 6c2.286.095 4.286.762 6 2a62.903 62.903 0 0 1-12-2c-1.147.318-1.981.984-2.5 2a4.934 4.934 0 0 1-.5-3 15.42 15.42 0 0 1-7-1 9.86 9.86 0 0 0-1 6c1.699.12 3.365.454 5 1 1.147-.318 1.981-.984 2.5-2 .483.948.649 1.948.5 3 3.281-.08 6.281.587 9 2h-3c-.926 4.386.741 6.72 5 7a37.974 37.974 0 0 1-12-2c-1.444 2.108-2.11 4.441-2 7 1.526 1.561-.141 1.561-5 0a160.228 160.228 0 0 0-1-17 19.883 19.883 0 0 1 1.5-8c.772 1.35 1.939 2.182 3.5 2.5a74.08 74.08 0 0 0 12 1.5l1-6a348.235 348.235 0 0 1-15-2 4.934 4.934 0 0 1-.5 3c-1.328-5.063-2.328-4.73-3 1-1.007-4.794-.84-6.794.5-6 10.692 1.26 21.026 3.592 31 7Z"/><path style="opacity:1" fill="#b2b2b1" d="M274.5 66.5c4.069.71 4.735 3.044 2 7-1.671-2.01-2.338-4.343-2-7Z"/><path style="opacity:1" fill="#b4b4b3" d="M274.5 60.5c3.374.174 6.707.674 10 1.5 2.417 1.673 2.417 3.507 0 5.5a79.137 79.137 0 0 0-10-2v-5Z"/><path style="opacity:1" fill="#a6a5a4" d="M312.5 45.5c.247 1.376 1.581 2.21 4 2.5-.752.67-1.086 1.504-1 2.5a935.643 935.643 0 0 1-13 29.5 2.427 2.427 0 0 0 2 .5c-.418.722-1.084 1.222-2 1.5a42.3 42.3 0 0 0 11 3.5c3.412.542 6.412 1.875 9 4a31.354 31.354 0 0 1 5 4.5c-.234 1.732-1.234 2.566-3 2.5a108.534 108.534 0 0 0-15.5-7l-1.5.5 6 3c-.498 1.158-1.331 1.992-2.5 2.5a119.67 119.67 0 0 0-18.5-6 86.188 86.188 0 0 0-15-5 4.932 4.932 0 0 0 3-.5c-1.098-.77-1.098-1.603 0-2.5a317.622 317.622 0 0 0 17 5c.916-.043 1.583-.376 2-1 1.062-1.734 1.062-3.4 0-5l-1.5-3c-1.667 1.333-3.333 1.333-5 0-.937-6.09 1.23-7.923 6.5-5.5a9.457 9.457 0 0 1 1.5 2.5 99.438 99.438 0 0 1 6.5-10c-.855-.793-1.689-.46-2.5 1a22.69 22.69 0 0 0-8.5-2l1-6c4.122.651 7.955 1.984 11.5 4 1.23-.775 1.563-1.775 1-3-1.488.696-2.988.362-4.5-1 .222-3.213 1.888-5.046 5-5.5-1.237-.232-2.237-.732-3-1.5 1.968-3.418 1.968-7.085 0-11-3.657-1.938-5.657-.938-6 3a8.435 8.435 0 0 1-4-.5 2.427 2.427 0 0 1 2-.5 36.287 36.287 0 0 0 2-4.5c3.522-.12 6.855.714 10 2.5a37.151 37.151 0 0 1-2 4.5c1.237.232 2.237.732 3 1.5Z"/><path style="opacity:1" fill="#c7c6c6" d="M79.5 65.5c2.559-.11 4.892.556 7 2a12.417 12.417 0 0 1-4 2.5 52.61 52.61 0 0 0 7 0 22.763 22.763 0 0 0-5 4l1 .5a23.954 23.954 0 0 1 9-3 937.25 937.25 0 0 1-9 6.5l12-3a64.717 64.717 0 0 0-9 6 78.055 78.055 0 0 0 12-3.5 111.804 111.804 0 0 1-12 8.5c4.272-.871 8.44-2.371 12.5-4.5.902.243 1.735.577 2.5 1v1a52.037 52.037 0 0 0-15 6c-1.207-2.779-2.54-4.779-4-6a87.732 87.732 0 0 1-4-10c.543-.06.876-.393 1-1a21.034 21.034 0 0 1-2-7Z"/><path style="opacity:1" fill="#bebdbd" d="M170.5 68.5c1.068-.934 2.401-1.268 4-1 15.996.033 31.996.366 48 1a91.123 91.123 0 0 0-19 1c-.363.683-.696 1.35-1 2-2.235-.295-4.235.039-6 1a125.502 125.502 0 0 0-23 1.5c8.324.025 16.657-.141 25-.5h6c.086.996-.248 1.83-1 2.5 1.237.232 2.237.732 3 1.5a381.057 381.057 0 0 0-56 4c-1.125-.848-1.125-1.848 0-3a349.948 349.948 0 0 1 22-3.5c-8.75-.157-17.417.677-26 2.5a20.691 20.691 0 0 1 1-5c9.065-.959 16.732-2.292 23-4Z"/><path style="opacity:1" fill="#7d7b7a" d="M310.5 81.5c-.111.617-.444 1.117-1 1.5 1.566.608 2.9 1.442 4 2.5a42.3 42.3 0 0 1-11-3.5c.916-.278 1.582-.778 2-1.5 2.903-5.74 7.07-10.406 12.5-14l.5 1c-4.796 2.95-7.796 7.116-9 12.5.336 1.03 1.003 1.53 2 1.5Z"/><path style="opacity:1" fill="#2f2d2c" d="M318.5 71.5a942.285 942.285 0 0 0 9 6.5 41.957 41.957 0 0 0-10-2l7 4.5c1.021.502 1.188 1.168.5 2a210.445 210.445 0 0 0-12.5-5.5 46.117 46.117 0 0 1 6-5.5Z"/><path style="opacity:1" fill="#63615f" d="M150.5 78.5c-1.599.268-2.932-.066-4-1a114.842 114.842 0 0 1 26-2.5 349.948 349.948 0 0 0-22 3.5Z"/><path style="opacity:1" fill="#d0d0cf" d="M204.5 73.5a328.073 328.073 0 0 1 76 8c-1.098.897-1.098 1.73 0 2.5a4.932 4.932 0 0 1-3 .5 413.31 413.31 0 0 0-71-7c-.763-.768-1.763-1.268-3-1.5.752-.67 1.086-1.504 1-2.5Z"/><path style="opacity:1" fill="#cdcccc" d="M292.5 89.5a102.316 102.316 0 0 0 8 3.5c-.544.717-1.211 1.217-2 1.5-39.26-11.126-79.26-15.126-120-12 1.051-.722 1.718-1.722 2-3 37.869-2.459 75.202.875 112 10Z"/><path style="opacity:1" fill="#686564" d="M196.5 72.5c1.765-.961 3.765-1.295 6-1a704.477 704.477 0 0 1 55 4 478.646 478.646 0 0 1 42 10c-.417.624-1.084.957-2 1a317.622 317.622 0 0 1-17-5 328.073 328.073 0 0 0-76-8h-6c-.342-.838-1.008-1.172-2-1Z"/><path style="opacity:1" fill="#5f5c5a" d="M206.5 77.5a413.31 413.31 0 0 1 71 7 86.188 86.188 0 0 1 15 5c-36.798-9.125-74.131-12.459-112-10-28.18 2.302-55.513 8.302-82 18 5.566-3.275 11.566-5.775 18-7.5a633.237 633.237 0 0 1 34-8.5 381.057 381.057 0 0 1 56-4Z"/><path style="opacity:1" fill="#292826" d="M310.5 81.5c-.082-1.752.751-2.752 2.5-3 3.902 2.37 7.735 4.87 11.5 7.5a348.363 348.363 0 0 0-14-4.5Z"/><path style="opacity:1" fill="#2f2d2a" d="M100.5 77.5c1.39 1.4 2.39 3.066 3 5a11.114 11.114 0 0 0-2.5-1c-4.06 2.129-8.228 3.629-12.5 4.5a111.804 111.804 0 0 0 12-8.5Z"/><path style="opacity:1" fill="#a4a4a3" d="M147.5 72.5a20.691 20.691 0 0 0-1 5c1.068.934 2.401 1.268 4 1-1.125 1.152-1.125 2.152 0 3a633.237 633.237 0 0 0-34 8.5c-6.434 1.725-12.434 4.225-18 7.5-2.287.224-4.453.89-6.5 2-2.943-.74-3.11-1.74-.5-3l-1-1a9.106 9.106 0 0 1-5 1c-.213-1.644.12-3.144 1-4.5l17-8.5a353.748 353.748 0 0 1 44-11Z"/><path style="opacity:1" fill="#6b6967" d="m103.5 83.5-17 8.5c-.88 1.356-1.213 2.856-1 4.5-1.195-.366-1.861-1.199-2-2.5a19.955 19.955 0 0 1 3-4.5 31.697 31.697 0 0 1-2-6c1.46 1.221 2.793 3.221 4 6a52.037 52.037 0 0 1 15-6Z"/><path style="opacity:1" fill="#a9a8a7" d="M180.5 79.5c-.282 1.278-.949 2.278-2 3-28.393 1.932-55.726 8.266-82 19 .027-1.7.694-3.033 2-4 26.487-9.698 53.82-15.698 82-18Z"/><path style="opacity:1" fill="#555351" d="M139.5 78.5a18.437 18.437 0 0 1 6 .5c-17.814 3.782-35.148 8.782-52 15 14.93-6.699 30.263-11.865 46-15.5Z"/><path style="opacity:1" fill="#9f9e9d" d="M163.5 85.5a5.575 5.575 0 0 1-1 3l4 1c5.828-1.153 11.495-1.153 17 0-29.014 2.002-57.014 8.335-84 19-1.21.432-2.21 1.099-3 2-1.501-.943-2.835-.609-4 1-1.333 0-2-.667-2-2a19.62 19.62 0 0 0 2-3.5c22.429-11.025 46.095-17.858 71-20.5Z"/><path style="opacity:1" fill="#82807f" d="M327.5 86.5a14.102 14.102 0 0 1-1 3.5c1.836 1.496 2.669 3.329 2.5 5.5a71.201 71.201 0 0 1-5.5 5c-2.219.725-4.219 1.058-6 1a31.147 31.147 0 0 0-2 2 57.857 57.857 0 0 1-9-5 63.339 63.339 0 0 0-8-4c.789-.283 1.456-.783 2-1.5a102.316 102.316 0 0 1-8-3.5 119.67 119.67 0 0 1 18.5 6c1.169-.508 2.002-1.342 2.5-2.5l-6-3 1.5-.5a108.534 108.534 0 0 1 15.5 7c1.766.066 2.766-.768 3-2.5a31.354 31.354 0 0 0-5-4.5c2.55-.06 4.05-1.394 4.5-4 .399.228.565.562.5 1Z"/><path style="opacity:1" fill="#625f5d" d="M298.5 94.5a63.339 63.339 0 0 1 8 4 236.95 236.95 0 0 0-36-9c-17.65-3.85-35.65-5.85-54-6-17.568-.907-35.234-.24-53 2-24.905 2.642-48.571 9.475-71 20.5a19.62 19.62 0 0 1-2 3.5c-1.205-1.172-1.205-2.505 0-4a25.86 25.86 0 0 0 5-3c-1.038-2.264-2.538-2.598-4.5-1a70.918 70.918 0 0 0-5.5-5 9.106 9.106 0 0 0 5-1l1 1c-2.61 1.26-2.443 2.26.5 3a16.985 16.985 0 0 1 6.5-2c-1.306.967-1.973 2.3-2 4 26.274-10.734 53.607-17.068 82-19 40.74-3.126 80.74.874 120 12Z"/><path style="opacity:1" fill="#817f7e" d="M238.5 90.5c4.223-1.228 8.556-1.061 13 .5a2.427 2.427 0 0 1-2 .5 49.393 49.393 0 0 1-11-1Z"/><path style="opacity:1" fill="#b0b0af" d="M216.5 83.5a43.123 43.123 0 0 0-13 1 3.647 3.647 0 0 1-1 1.5 290.122 290.122 0 0 0 21 2c-2.31.497-4.643.663-7 .5-11.013 0-22.013.334-33 1-5.505-1.153-11.172-1.153-17 0l-4-1a5.575 5.575 0 0 0 1-3c17.766-2.24 35.432-2.907 53-2Z"/><path style="opacity:1" fill="#d2d1d0" d="M216.5 83.5c18.35.15 36.35 2.15 54 6-.477 1.964-1.644 3.298-3.5 4-4.58-1.738-9.08-2.072-13.5-1-1.599.268-2.932-.066-4-1a2.427 2.427 0 0 0 2-.5c-4.444-1.561-8.777-1.728-13-.5a256.215 256.215 0 0 1-22-2c2.357.163 4.69-.003 7-.5a290.122 290.122 0 0 1-21-2 3.647 3.647 0 0 0 1-1.5 43.123 43.123 0 0 1 13-1Z"/><path style="opacity:1" fill="#a5a4a3" d="M270.5 89.5a236.95 236.95 0 0 1 36 9 57.857 57.857 0 0 0 9 5 31.147 31.147 0 0 1 2-2 68.87 68.87 0 0 1 5.5 5c.91 2.445.076 3.778-2.5 4h-5c-.79-.901-1.79-1.568-3-2a257.562 257.562 0 0 0-59-16c4.42-1.072 8.92-.738 13.5 1 1.856-.702 3.023-2.036 3.5-4Z"/><path style="opacity:1" fill="#b3bdb6" d="M99.5 108.5c71 1.333 142 1.333 213 0 1.21.432 2.21 1.099 3 2h-219c.79-.901 1.79-1.568 3-2Z"/><path style="opacity:1" fill="#4a5d4e" d="M96.5 110.5h224c-.662 53.098-1.329 106.098-2 159a6242.489 6242.489 0 0 0-1-158h-223v160h-1a6613.886 6613.886 0 0 1-1-160c1.165-1.609 2.499-1.943 4-1Z"/><path style="opacity:1" fill="#3f7848" d="M317.5 111.5a7638.366 7638.366 0 0 1-1 171v1l-4 7c-1.411-2.039-3.411-3.039-6-3 8.865-37.889-.135-70.722-27-98.5a37.885 37.885 0 0 0-10-6 11.532 11.532 0 0 1-3.5-4.5c-.667-4-.667-8 0-12a7.248 7.248 0 0 1 2.5-2c2.973 1.718 5.14 1.051 6.5-2 .579-10.069-3.921-13.236-13.5-9.5-3.538 2.531-5.872 5.864-7 10-8.73.32-10.397 4.153-5 11.5-3.536 1.664-5.036 4.331-4.5 8l1.5 1.5a17.18 17.18 0 0 0-7.5 4.5c-.778 2.775-.278 5.275 1.5 7.5-3.254 6.737-2.587 12.904 2 18.5 5.002 1.857 9.335.857 13-3-6.046-12.22-2.713-16.72 10-13.5 10.581 6.648 17.081 16.148 19.5 28.5a116.268 116.268 0 0 1 0 37l-3 8c-.816 1.323-1.983 1.989-3.5 2-1.714-1.238-3.714-1.905-6-2a71.285 71.285 0 0 0-9-3 9740.61 9740.61 0 0 0-13-11c-2.623-1.765-5.623-2.432-9-2v-39h-10v-43h5v-6h5v-15c-3.679-.44-7.012.227-10 2 .009-1.808-.491-3.475-1.5-5-2.278-2.811-5.111-4.811-8.5-6a364.488 364.488 0 0 1-6-3c-1.419-.951-3.085-1.284-5-1-.165-3.35.002-6.683.5-10 2.381-.935 4.881-1.268 7.5-1v-7h-8v-8h-7v8h-8v8h8v10c-1.599-.268-2.932.066-4 1-7.71 1.374-13.044 5.708-16 13-3.564-.923-7.231-1.256-11-1v15h6v5c.709.904 1.709 1.237 3 1v43h-9v39a64.947 64.947 0 0 1-11 3 87.567 87.567 0 0 1-6 11c-6.023-1.311-11.023.523-15 5.5a20.431 20.431 0 0 0-5.5 1.5c-5.954-9.819-8.454-20.485-7.5-32-1.498-18.032 4.502-32.865 18-44.5 3.85-3.027 8.184-4.027 13-3 3.7 4.741 3.7 9.574 0 14.5 5.782 5.426 11.282 5.093 16.5-1 .82-5.132.32-10.132-1.5-15 3.343-6.363 1.343-10.029-6-11 3.068-4.379 2.068-7.713-3-10 5.568-8.124 3.568-12.124-6-12-2.078-8.219-7.412-11.719-16-10.5-3.612 2.969-4.779 6.802-3.5 11.5 1.865 2.173 4.031 2.507 6.5 1a7.248 7.248 0 0 1 2.5 2c.81 4.757.476 9.424-1 14-16.913 10.124-28.913 24.457-36 43-7.686 22.071-8.52 44.405-2.5 67-3.002 1.143-6.002 1.143-9 0a170.257 170.257 0 0 1-5-19v-160h223Z"/><path style="opacity:1" fill="#34573b" d="M317.5 111.5a6242.489 6242.489 0 0 1 1 158c.22 4.6-.446 8.933-2 13a7638.366 7638.366 0 0 0 1-171Z"/><path style="opacity:1" fill="#505250" d="M215.5 140.5h-16c1.068-.934 2.401-1.268 4-1v-10h-8v-8h8v-8h7v8h8v7c-2.619-.268-5.119.065-7.5 1a50.464 50.464 0 0 0-.5 10c1.915-.284 3.581.049 5 1Z"/><path style="opacity:1" fill="#c6c5c5" d="M204.5 114.5h5v8h8v5h-8v11h-5v-10h-8v-6h8v-8Z"/><path style="opacity:1" fill="#959595" d="M78.5 141.5a49.367 49.367 0 0 0-11-1c.992-1.526 2.492-2.193 4.5-2 2.735-.069 4.902.931 6.5 3Z"/><path style="opacity:1" fill="#939493" d="M343.5 158.5h-3c4.108-4.156 5.941-9.156 5.5-15-1.135-2.303-2.968-3.636-5.5-4-2.683 1.01-5.349 2.01-8 3 3.151-3.936 7.151-4.936 12-3 1.96 1.791 3.293 3.957 4 6.5a40.563 40.563 0 0 1-5 12.5Z"/><path style="opacity:1" fill="#fcfcfc" d="M67.5 140.5a49.367 49.367 0 0 1 11 1 81.239 81.239 0 0 1 6.5 8c.497 2.31.663 4.643.5 7-6.434 3.309-12.268 2.642-17.5-2-2.95-4.647-3.117-9.313-.5-14Z"/><path style="opacity:1" fill="#aeaead" d="M199.5 140.5h6a236.077 236.077 0 0 0-8 19c-.968-2.107-1.302-4.441-1-7h-10v7h-4a19.22 19.22 0 0 1 1-6c2.956-7.292 8.29-11.626 16-13Z"/><path style="opacity:1" fill="#d6d5d5" d="M205.5 140.5h10c1.926.986 3.926 1.986 6 3a49.783 49.783 0 0 1-3 9c-.968 2.107-1.302 4.441-1 7h-6v-7h-10v7h-4a236.077 236.077 0 0 1 8-19Z"/><path style="opacity:1" fill="#b2b3b1" d="M221.5 143.5c3.389 1.189 6.222 3.189 8.5 6 1.009 1.525 1.509 3.192 1.5 5a20.69 20.69 0 0 1 1 5h-6v-7h-8a49.783 49.783 0 0 0 3-9Z"/><path style="opacity:1" fill="#8e8e8e" d="M78.5 141.5c7.778 3.965 10.945 10.298 9.5 19-.816 1.323-1.983 1.989-3.5 2 2.28-2.223 3.112-4.889 2.5-8-.278.916-.778 1.582-1.5 2a24.939 24.939 0 0 0-.5-7 81.239 81.239 0 0 0-6.5-8Z"/><path style="opacity:1" fill="#7b7c7c" d="M67.5 140.5c-2.617 4.687-2.45 9.353.5 14 5.232 4.642 11.066 5.309 17.5 2-.077 1.25-.744 2.083-2 2.5l-27 1c-1.4.41-2.734.91-4 1.5.077-1.25.744-2.083 2-2.5 4.99-1.48 9.99-1.813 15-1-4.985-4.782-6.318-10.282-4-16.5.457-.798 1.124-1.131 2-1Z"/><path style="opacity:1" fill="#898989" d="M330.5 144.5c-3.266 3.258-4.766 7.258-4.5 12l-1-2c-.658 3.525.509 6.359 3.5 8.5l13 5c2.625 2.196 3.625 5.03 3 8.5a4.934 4.934 0 0 1 3 .5 33.27 33.27 0 0 0-8.5 3.5c-.399-.228-.565-.562-.5-1a173.55 173.55 0 0 1 4-3c1.333-1.667 1.333-3.333 0-5-4.825-3.613-10.158-6.28-16-8-4.022-5.694-3.855-11.361.5-17 .816-1.323 1.983-1.989 3.5-2Z"/><path style="opacity:1" fill="#6d6d6c" d="M52.5 161.5a170.506 170.506 0 0 1-2.5 10 14.696 14.696 0 0 1-3.5 3c2.22-3.265 3.386-6.932 3.5-11 .417-1.256 1.25-1.923 2.5-2Z"/><path style="opacity:1" fill="#7a7b7a" d="M340.5 158.5h3c13.249-3.553 20.249 1.447 21 15-.958-.453-1.792-1.119-2.5-2-.694-3.741-1.861-7.241-3.5-10.5a251.13 251.13 0 0 0-29-2c-2.095-.556-2.262-1.056-.5-1.5a39.6 39.6 0 0 0 11.5 1Z"/><path style="opacity:1" fill="#f4f4f4" d="M84.5 162.5a346.866 346.866 0 0 1-14 5.5c-2.625 2.196-3.625 5.03-3 8.5a4.934 4.934 0 0 0-3 .5c12.286 3.054 15.286 9.887 9 20.5.172.992-.162 1.658-1 2 .065-.438-.101-.772-.5-1a40.226 40.226 0 0 0-2 11c-1.113-1.829-2.613-2.663-4.5-2.5 5.872 3.778 7.54 8.944 5 15.5-6.043 5.568-13.043 7.234-21 5-1.396-4.48-2.73-8.98-4-13.5l5-1c1.256-.417 1.923-1.25 2-2.5 2.33-2.042 3.496-4.708 3.5-8 1.05 1.017 2.216 1.184 3.5.5-7.863-3.096-15.196-6.929-22-11.5-.911-4.867.422-8.867 4-12 1.382-2.049 3.048-3.715 5-5 1.294-.79 2.46-1.79 3.5-3a170.506 170.506 0 0 0 2.5-10c1.266-.59 2.6-1.09 4-1.5l27-1c1.256-.417 1.923-1.25 2-2.5.722-.418 1.222-1.084 1.5-2 .612 3.111-.22 5.777-2.5 8Z"/><path style="opacity:1" fill="#f5f5f5" d="M340.5 158.5a39.6 39.6 0 0 1-11.5-1c-1.762.444-1.595.944.5 1.5a251.13 251.13 0 0 1 29 2c1.639 3.259 2.806 6.759 3.5 10.5.708.881 1.542 1.547 2.5 2a130.173 130.173 0 0 0 9.5 10c.847 3.572.347 6.906-1.5 10a724.063 724.063 0 0 1-20 9.5c1.284.684 2.451.517 3.5-.5-.029 4.981 2.137 8.314 6.5 10 1.109.79 2.442 1.29 4 1.5a185.505 185.505 0 0 1-4 13.5 28.214 28.214 0 0 1-12 .5 82.844 82.844 0 0 1-9-5.5c-2.193-5.828-.86-10.662 4-14.5-1.496-.507-2.663-.007-3.5 1.5l-1-9-6-10c-.93-3.35-.097-6.183 2.5-8.5-.228-.399-.562-.565-1-.5 0-1.333.667-2 2-2-.065.438.101.772.5 1a33.27 33.27 0 0 1 8.5-3.5 4.934 4.934 0 0 0-3-.5c.625-3.47-.375-6.304-3-8.5l-13-5c-2.991-2.141-4.158-4.975-3.5-8.5l1 2c-.266-4.742 1.234-8.742 4.5-12 0-1.333.667-2 2-2 2.651-.99 5.317-1.99 8-3 2.532.364 4.365 1.697 5.5 4 .441 5.844-1.392 10.844-5.5 15Z"/><path style="opacity:1" fill="#8e8e8e" d="M41.5 179.5c-3.578 3.133-4.911 7.133-4 12-3.514-5.55-2.18-9.55 4-12Z"/><path style="opacity:1" fill="#848383" d="M60.5 186.5c3.568-.994 6.901-.161 10 2.5l-10-2.5Z"/><path style="opacity:1" fill="#9b9a9a" d="M364.5 173.5a54.61 54.61 0 0 1 11.5 10c1.243 4.343.076 7.677-3.5 10 1.847-3.094 2.347-6.428 1.5-10a130.173 130.173 0 0 1-9.5-10Z"/><path style="opacity:1" fill="#858585" d="M347.5 185.5a8.43 8.43 0 0 1 4 .5c-3.899 1.184-7.566 2.517-11 4 2.092-2.036 4.426-3.536 7-4.5Z"/><path style="opacity:1" fill="#8e8e8e" d="M84.5 162.5c.13.876-.203 1.543-1 2a91.734 91.734 0 0 1-12 4.5c-3.274 2.604-3.607 5.437-1 8.5 10.034 5.663 11.034 12.33 3 20 6.286-10.613 3.286-17.446-9-20.5a4.934 4.934 0 0 1 3-.5c-.625-3.47.375-6.304 3-8.5a346.866 346.866 0 0 0 14-5.5Z"/><path style="opacity:1" fill="#858585" d="M58.5 194.5c2.27-.554 4.604-.054 7 1.5-2.46.239-4.793-.261-7-1.5Z"/><path style="opacity:1" fill="#1f1f19" d="M155.5 269.5c.829 2.969.995 5.969.5 9a31.291 31.291 0 0 0-4.5 5 4.933 4.933 0 0 0 1 2.5c6.394.91 12.561.077 18.5-2.5 8.017.548 14.517 3.881 19.5 10-.172.992.162 1.658 1 2-.165 3.35.002 6.683.5 10 .804-1.304 1.971-1.971 3.5-2a28.686 28.686 0 0 0 11.5 3c3.966.019 7.633-.981 11-3 1.711-.061 3.044.606 4 2 .499-3.652.665-7.318.5-11-2.286-.095-4.286-.762-6-2 2.369.351 4.703.518 7 .5 4.387-5.11 9.887-8.277 16.5-9.5a89.694 89.694 0 0 0 20.5 3.5c2.821-2.717 2.487-5.05-1-7-3.691-2.019-7.358-3.686-11-5a13.92 13.92 0 0 0 3 4 16.154 16.154 0 0 1-8-2.5c3.695.626 4.529-.374 2.5-3-3.826-5.661-8.993-9.494-15.5-11.5a34.041 34.041 0 0 0 7.5-1.5 36.61 36.61 0 0 1 9.5 7.5c1.973.495 3.973.662 6 .5a71.254 71.254 0 0 1-4 2 73.412 73.412 0 0 1 7.5 7c.082-4.572 2.248-7.572 6.5-9a71.285 71.285 0 0 1 9 3 2.428 2.428 0 0 0-2 .5 102.18 102.18 0 0 1 6 7.5c2.386-1.628 3.053-3.628 2-6 1.517-.011 2.684-.677 3.5-2l3-8a116.268 116.268 0 0 0 0-37c-2.419-12.352-8.919-21.852-19.5-28.5-12.713-3.22-16.046 1.28-10 13.5-3.665 3.857-7.998 4.857-13 3-4.587-5.596-5.254-11.763-2-18.5-1.778-2.225-2.278-4.725-1.5-7.5a17.18 17.18 0 0 1 7.5-4.5l-1.5-1.5c-.536-3.669.964-6.336 4.5-8-5.397-7.347-3.73-11.18 5-11.5 1.128-4.136 3.462-7.469 7-10 9.579-3.736 14.079-.569 13.5 9.5-1.36 3.051-3.527 3.718-6.5 2a7.248 7.248 0 0 0-2.5 2c-.667 4-.667 8 0 12a11.532 11.532 0 0 0 3.5 4.5 37.885 37.885 0 0 1 10 6c26.865 27.778 35.865 60.611 27 98.5 2.589-.039 4.589.961 6 3a36.87 36.87 0 0 1-5.5-2c-1.815 1.599-2.982 3.599-3.5 6v1c-1.459 4.167-3.459 8.167-6 12a31.147 31.147 0 0 1 2 2c-2.411-.363-3.911.637-4.5 3 .128 2.986.128 5.986 0 9-2.108 4.864-4.608 4.864-7.5 0a32.444 32.444 0 0 1-6 1.5 29.5 29.5 0 0 1-9.5 6.5c-1.812 1.804-1.646 2.804.5 3-1.068.934-2.401 1.268-4 1-2.68-5.272-5.513-5.272-8.5 0-.528 1.316-.028 1.983 1.5 2-.709.904-1.709 1.237-3 1a514.367 514.367 0 0 0-3-4 14.748 14.748 0 0 1-3 4.5 2.428 2.428 0 0 0 2 .5v1h-8c-1.22-1.782-1.886-3.782-2-6-4.118.03-8.118.697-12 2-1.459-.067-2.792.266-4 1a84.902 84.902 0 0 1-13-.5 8.905 8.905 0 0 1-4-3l-4.5-.5c-4.215 1.991-8.715 3.324-13.5 4a56.904 56.904 0 0 0-17 2c1.648-1.427 3.648-2.26 6-2.5a60.175 60.175 0 0 0-13-2.5c.214 1.644-.12 3.144-1 4.5 2.31.497 4.643.663 7 .5-1.419.951-3.085 1.284-5 1a72.367 72.367 0 0 1-12-.5c-1.237-.232-2.237-.732-3-1.5a213.818 213.818 0 0 1-16-4v-1c1.175.219 2.175-.114 3-1a82.501 82.501 0 0 1-10-7.5 32.444 32.444 0 0 1-6-1.5 25.513 25.513 0 0 0-4.5 4c-3.444-3.053-4.278-6.719-2.5-11-.205-3.875-2.205-5.541-6-5a44.093 44.093 0 0 1 3-2 35.145 35.145 0 0 1-5-10c-2.271-.863-4.605-.863-7 0 1.609-1.271 3.442-2.271 5.5-3 .585-1.498.085-2.498-1.5-3v-1c-6.02-22.595-5.186-44.929 2.5-67 7.087-18.543 19.087-32.876 36-43 1.476-4.576 1.81-9.243 1-14a7.248 7.248 0 0 0-2.5-2c-2.469 1.507-4.635 1.173-6.5-1-1.279-4.698-.112-8.531 3.5-11.5 8.588-1.219 13.922 2.281 16 10.5 9.568-.124 11.568 3.876 6 12 5.068 2.287 6.068 5.621 3 10 7.343.971 9.343 4.637 6 11 1.82 4.868 2.32 9.868 1.5 15-5.218 6.093-10.718 6.426-16.5 1 3.7-4.926 3.7-9.759 0-14.5-4.816-1.027-9.15-.027-13 3-13.498 11.635-19.498 26.468-18 44.5-.954 11.515 1.546 22.181 7.5 32a20.431 20.431 0 0 1 5.5-1.5c3.977-4.977 8.977-6.811 15-5.5Z"/><path style="opacity:1" fill="#532a23" d="M190.5 181.5a45.782 45.782 0 0 0-1 12h11v-12c.934 1.068 1.268 2.401 1 4v9h-13v-9c-.271-1.88.396-3.213 2-4Z"/><path style="opacity:1" fill="#ebe98d" d="M151.5 186.5c1.659 1.47 3.659 2.137 6 2 5.01-1.33 10.01-1.33 15 0 .475 2.813-.525 4.813-3 6a10.165 10.165 0 0 0-3 3c-5.078-3.847-10.745-4.847-17-3a24.257 24.257 0 0 1 3-5.5c-.752-.671-1.086-1.504-1-2.5Z"/><path style="opacity:1" fill="#eae789" d="M265.5 183.5c7.194 3.248 13.194 7.915 18 14-.897-1.098-1.73-1.098-2.5 0-1.879 2.027-3.046 4.36-3.5 7-4.741-5.716-10.741-9.383-18-11 2.533-3.074 4.533-6.407 6-10Z"/><path style="opacity:1" fill="#e3d96a" d="M262.5 176.5a70.247 70.247 0 0 0 3 7c-1.467 3.593-3.467 6.926-6 10-4.671.536-8.837 2.203-12.5 5-1.375 4.398-.042 7.732 4 10a8.43 8.43 0 0 1 .5 4c-6.854 1.934-10.188-.566-10-7.5.158-3.478 1.158-6.645 3-9.5-2.354-1.746-3.354-4.079-3-7 5.138-1.646 10.138-1.313 15 1 6.274-1.175 7.274-3.842 3-8 2.259-.844 3.259-2.511 3-5Z"/><path style="opacity:1" fill="#9d9d9c" d="M188.5 186.5v6h-6v-6h6Z"/><path style="opacity:1" fill="#396840" d="M252.5 184.5c2.347-1.395 4.681-1.228 7 .5-2.544 2.088-4.877 1.921-7-.5Z"/><path style="opacity:1" fill="#38663f" d="M155.5 183.5c7.035-.484 7.535.516 1.5 3-2.578-.182-3.078-1.182-1.5-3Z"/><path style="opacity:1" fill="#c3c2c1" d="M201.5 185.5c.268-1.599-.066-2.932-1-4-.667 0-1-.333-1-1 1.765-.961 3.765-1.295 6-1v6h-4Z"/><path style="opacity:1" fill="#d73531" d="M198.5 179.5c0 .667.333 1 1 1 0 .667.333 1 1 1v12h-11a45.782 45.782 0 0 1 1-12c.667 0 1-.333 1-1 2.217-.869 4.55-1.202 7-1Z"/><path style="opacity:1" fill="#989594" d="M191.5 180.5c0 .667-.333 1-1 1-1.604.787-2.271 2.12-2 4h-6v-6c3.213-.31 6.213.023 9 1Z"/><path style="opacity:1" fill="#535050" d="M200.5 173.5h1v5h10v-5h1v5h11v-5h1v5h6v-5h1v28h-1v-7h-7v-2h7v-6h-7v-1h7v-6c-3.542-.313-6.875.021-10 1-2.333-1.333-4.667-1.333-7 0h-1c-1.765-.961-3.765-1.295-6-1v6h4v1h-8v7h8v1h-3v7h-2v-7h-4v-9h4v-6c-2.235-.295-4.235.039-6 1-.667 0-1-.333-1-1v-1c1.756-1.052 2.423-2.719 2-5Z"/><path style="opacity:1" fill="#542b24" d="M212.5 180.5h1c-1.858 4.027-2.525 8.36-2 13h11a45.782 45.782 0 0 0-1-12c1.604.787 2.271 2.12 2 4v9h-13v-9c-.38-2.198.287-3.865 2-5Z"/><path style="opacity:1" fill="#acabab" d="M223.5 186.5h7v6h-7v-6Z"/><path style="opacity:1" fill="#c5c3c2" d="M210.5 186.5v7h-8v-7h8Z"/><path style="opacity:1" fill="#acabab" d="M220.5 180.5c3.125-.979 6.458-1.313 10-1v6h-7c.271-1.88-.396-3.213-2-4 0-.667-.333-1-1-1Z"/><path style="opacity:1" fill="#d73531" d="M220.5 180.5c.667 0 1 .333 1 1a45.782 45.782 0 0 1 1 12h-11c-.525-4.64.142-8.973 2-13 2.333-1.333 4.667-1.333 7 0Z"/><path style="opacity:1" fill="#cecdcc" d="M212.5 180.5c-1.713 1.135-2.38 2.802-2 5h-4v-6c2.235-.295 4.235.039 6 1Z"/><path style="opacity:1" fill="#c3c2c2" d="M212.5 173.5h11v5h-11v-5Z"/><path style="opacity:1" fill="#a4a3a3" d="M224.5 173.5h6v5h-6v-5Z"/><path style="opacity:1" fill="#cacac9" d="M201.5 173.5h10v5h-10v-5Z"/><path style="opacity:1" fill="#b2b1b1" d="M200.5 173.5c.423 2.281-.244 3.948-2 5h-8v-5h10Z"/><path style="opacity:1" fill="#3a3b3a" d="M218.5 152.5h8v7h6a20.69 20.69 0 0 0-1-5c2.988-1.773 6.321-2.44 10-2v15h-5v6h-46v5h8v1c-2.45-.202-4.783.131-7 1-2.787-.977-5.787-1.31-9-1v6h6v1h-6v6h6v2h-6v7h13v-7h1v7h22v-7h1v7h12v1h-41v6l-8 2v6h13v-6c0-.667.333-1 1-1v7h45v39c3.377-.432 6.377.235 9 2-1.291-.237-2.291.096-3 1-3.9-.93-7.9-1.263-12-1-6.145-.99-12.478-1.323-19-1v-1a867.01 867.01 0 0 0 2-30 11.988 11.988 0 0 0-6 1c-1.239-.442-2.239-1.109-3-2 1.844-1.779 2.51-4.112 2-7h-32v7c8.007-.166 16.007 0 24 .5-2.3 1.367-4.634 1.867-7 1.5 2.262 1.53 1.928 2.863-1 4v3h-1c-4.805-.987-9.805-1.321-15-1v7h15v1h-10v7l-5 2v5h11c0 .667-.333 1-1 1h-17v-39h9v-43c-1.291.237-2.291-.096-3-1h50v-6h12v-13h-7v8h-8v-8h-7v7c-.667 0-1-.333-1-1-.302-2.559.032-4.893 1-7Z"/><path style="opacity:1" fill="#9d9c9b" d="M182.5 173.5h7v5h-7v-5Z"/><path style="opacity:1" fill="#c0bfbf" d="M228.5 167.5v5h-9v-5h9Z"/><path style="opacity:1" fill="#d9c850" d="M262.5 176.5c.259 2.489-.741 4.156-3 5a14.692 14.692 0 0 0-4.5-1c-2.48 1.014-4.98 1.514-7.5 1.5-.836-1.243-.503-2.41 1-3.5 1.35-1.45 3.016-2.117 5-2 .256-2.412-.744-4.079-3-5a9.86 9.86 0 0 1-1-6h8c.646-9.486 5.48-12.82 14.5-10 .667 2 .667 4 0 6-9.363-4.311-13.363-1.311-12 9a57.56 57.56 0 0 1 3-8c1.183-1.231 2.349-1.231 3.5 0a19.887 19.887 0 0 0-3.5 4 50.464 50.464 0 0 0-.5 10Z"/><path style="opacity:1" fill="#a6a6a5" d="M229.5 167.5h6v5h-6v-5Z"/><path style="opacity:1" fill="#4f5050" d="M183.5 153.5a19.22 19.22 0 0 0-1 6h4v-7h10c-.302 2.559.032 4.893 1 7h4v-7h10v7h6c0 .667.333 1 1 1-2.448.973-5.115 1.306-8 1v-8h-8v8h-8v-8h-6v8h-7v-8h-8v13h55v1h-9v5h-1v-5h-11v5h-2v-5h-9v5h-1v-5h-8v5h-2v-5h-6v5h-1v-5h-6v-15c3.769-.256 7.436.077 11 1Z"/><path style="opacity:1" fill="#bfbfbe" d="M205.5 172.5h-9v-5h9v5Z"/><path style="opacity:1" fill="#dadad9" d="M218.5 172.5h-11v-5h11v5Z"/><path style="opacity:1" fill="#abaaaa" d="M195.5 172.5h-8v-5h8v5Z"/><path style="opacity:1" fill="#9b9a99" d="M185.5 172.5h-6v-5h6v5Z"/><path style="opacity:1" fill="#e0d25d" d="M151.5 186.5c-.086.996.248 1.829 1 2.5a24.257 24.257 0 0 0-3 5.5c-10.271 5.603-17.271 13.937-21 25-.617-.111-1.117-.444-1.5-1a78.664 78.664 0 0 0-9 12c-.671.752-1.504 1.086-2.5 1v-6c.717-2.453 1.884-4.787 3.5-7a43.073 43.073 0 0 1 2-9l9-13a153.885 153.885 0 0 1 19-14c3.415-6.659 3.248-13.159-.5-19.5 1.135-.749 2.135-.583 3 .5a19.06 19.06 0 0 1 2.5 7c1.363-10.311-2.637-13.311-12-9-.667-2-.667-4 0-6 9.066-2.709 13.9.624 14.5 10h8a9.86 9.86 0 0 1-1 6 19.887 19.887 0 0 0-4 3.5c3.928 1.092 6.261 3.592 7 7.5-4.998-2.922-9.831-2.588-14.5 1a4.934 4.934 0 0 0-.5 3Z"/><path style="opacity:1" fill="#a3a2a1" d="M197.5 161.5a5.576 5.576 0 0 1-1 3 182.078 182.078 0 0 0 33 .5c.837-1.011 1.17-2.178 1-3.5h3v-8h7v13h-67v-13h8v8h7v-8h6v8h3Z"/><path style="opacity:1" fill="#d1d1d0" d="M218.5 160.5v-7h7v8h5c.17 1.322-.163 2.489-1 3.5a182.078 182.078 0 0 1-33-.5 5.576 5.576 0 0 0 1-3h5v-8h8v8c2.885.306 5.552-.027 8-1Z"/><path style="opacity:1" fill="#8f8f8f" d="M37.5 191.5c6.804 4.571 14.137 8.404 22 11.5-1.284.684-2.45.517-3.5-.5-.004 3.292-1.17 5.958-3.5 8 .968-2.945 1.134-5.945.5-9-3.4-1.691-6.9-3.191-10.5-4.5-2.556-1.055-4.222-2.888-5-5.5Z"/><path style="opacity:1" fill="#a6a6a5" d="M188.5 194.5h7v7h-13v-7h6Z"/><path style="opacity:1" fill="#d6d6d5" d="M210.5 194.5h8v7h-11v-7h3Z"/><path style="opacity:1" fill="#959494" d="M351.5 193.5c1.879-.107 2.212.393 1 1.5-3.291 1.155-6.291 2.488-9 4 2.246-2.609 4.913-4.443 8-5.5Z"/><path style="opacity:1" fill="#bebdbd" d="M196.5 194.5h9v7h-9v-7Z"/><path style="opacity:1" fill="#8b8b8b" d="M336.5 181.5c.438-.065.772.101 1 .5-2.597 2.317-3.43 5.15-2.5 8.5l6 10 1 9c.837-1.507 2.004-2.007 3.5-1.5-4.86 3.838-6.193 8.672-4 14.5-2.18-1.531-3.18-3.698-3-6.5a95.076 95.076 0 0 1 2-11 122.517 122.517 0 0 0-8-17c.719-2.617 2.053-4.784 4-6.5Z"/><path style="opacity:1" fill="#e0d86d" d="M169.5 194.5c3.033 4.789 3.7 9.956 2 15.5-.405.945-1.072 1.612-2 2-2.31.497-4.643.663-7 .5-.054-3.467 1.446-6.134 4.5-8 .703-2.429.537-4.762-.5-7a10.165 10.165 0 0 1 3-3Z"/><path style="opacity:1" fill="#b8b8b7" d="M219.5 194.5h11v7h-11v-7Z"/><path style="opacity:1" fill="#9f9e9d" d="M182.5 202.5h7v6h-7v-6Z"/><path style="opacity:1" fill="#b4b3b2" d="M200.5 202.5v6h-10v-6h10Z"/><path style="opacity:1" fill="#7c7d7c" d="M37.5 205.5a796.928 796.928 0 0 0-5 4c.587-1.267.587-2.267 0-3a16.08 16.08 0 0 1-5 2c2.77-3.035 6.102-4.035 10-3Z"/><path style="opacity:1" fill="#f7f7f7" d="M32.5 209.5c-.617.111-1.117.444-1.5 1-.873 4.944-.373 9.61 1.5 14 2.471 7.434 3.471 15.1 3 23-1.426 1.648-2.26 3.648-2.5 6-.814 4.52-.647 8.854.5 13a6.846 6.846 0 0 0 1 4l-2 1c-2.683-1.01-5.35-2.01-8-3-1.571-2.731-3.905-4.565-7-5.5a68.768 68.768 0 0 0-15-1.5c-1.278-.282-2.278-.949-3-2v-7c1.404-5.289 2.404-10.789 3-16.5-1.214-5.893-1.214-11.727 0-17.5a169.947 169.947 0 0 0 16-2.5c2.117-1.049 3.784-2.549 5-4.5.762-1.762 2.096-2.762 4-3a16.08 16.08 0 0 0 5-2c.587.733.587 1.733 0 3Z"/><path style="opacity:1" fill="#f8f8f8" d="M37.5 205.5c1.527-.073 2.527.594 3 2 3.068 4.144 5.068 8.811 6 14a74.091 74.091 0 0 1-12 1.5c-.556.383-.89.883-1 1.5h-1c-.963-5.039-.963-10.039 0-15a796.928 796.928 0 0 1 5-4Z"/><path style="opacity:1" fill="#dcc341" d="M283.5 197.5c4.571 4.131 7.904 9.131 10 15-.103 5.207-2.103 9.54-6 13-2.004-7.673-5.337-14.673-10-21 .454-2.64 1.621-4.973 3.5-7 .77-1.098 1.603-1.098 2.5 0Z"/><path style="opacity:1" fill="#fbfbfb" d="M379.5 209.5c1.057 4.634 1.057 9.3 0 14a185.295 185.295 0 0 1-14-2 87.147 87.147 0 0 0 2-8 53.864 53.864 0 0 1 6-6.5c1-.667 2-.667 3 0a10.515 10.515 0 0 0 3 2.5Z"/><path style="opacity:1" fill="#8b8b8a" d="M72.5 199.5c-.938 5.518-.604 11.018 1 16.5.18 2.802-.82 4.969-3 6.5 2.54-6.556.872-11.722-5-15.5 1.887-.163 3.387.671 4.5 2.5.16-3.787.826-7.454 2-11 .399.228.565.562.5 1Z"/><path style="opacity:1" fill="#5b5b5b" d="M200.5 202.5h1v6h10v-6h1v6h11v-6h1v6h6v-6h1v14h-1v-7h-11v7h-1v-7a60.931 60.931 0 0 0-11 .5c-.923 2.041-1.256 4.208-1 6.5h-1v-7h-9c-.667 0-1 .333-1 1h-13l8-2h10v-6Z"/><path style="opacity:1" fill="#c8c8c7" d="M212.5 202.5h11v6h-11v-6Z"/><path style="opacity:1" fill="#a7a7a6" d="M224.5 202.5h6v6h-6v-6Z"/><path style="opacity:1" fill="#d4d3d3" d="M201.5 202.5h10v6h-10v-6Z"/><path style="opacity:1" fill="#9c9c9c" d="M372.5 193.5c-.437 1.574-1.437 2.741-3 3.5a147.687 147.687 0 0 0-10.5 4.5c-1.666 7.33 1.167 10.497 8.5 9.5 6.415-8.371 13.082-8.538 20-.5a58.506 58.506 0 0 0-6.5-3c-1.03.336-1.53 1.003-1.5 2a10.515 10.515 0 0 1-3-2.5c-1-.667-2-.667-3 0a53.864 53.864 0 0 0-6 6.5c-1.419-.951-3.085-1.284-5-1-4.363-1.686-6.529-5.019-6.5-10-1.049 1.017-2.216 1.184-3.5.5a724.063 724.063 0 0 0 20-9.5Z"/><path style="opacity:1" fill="#a6a5a5" d="M182.5 210.5h13v6h-13v-6Z"/><path style="opacity:1" fill="#cccccb" d="M218.5 216.5h-12c-.256-2.292.077-4.459 1-6.5a60.931 60.931 0 0 1 11-.5v7Z"/><path style="opacity:1" fill="#bbbaba" d="M196.5 209.5h9v7h-9v-7Z"/><path style="opacity:1" fill="#b3b2b2" d="M230.5 216.5h-11v-7h11v7Z"/><path style="opacity:1" fill="#9e9e9e" d="M387.5 210.5c5.201 4.232 11.201 6.065 18 5.5 1.82.2 3.153 1.034 4 2.5-7.571.118-14.571-1.715-21-5.5-.752-.671-1.086-1.504-1-2.5Z"/><path style="opacity:1" fill="#999998" d="M23.5 211.5c-1.216 1.951-2.883 3.451-5 4.5a169.947 169.947 0 0 1-16 2.5c.11-.617.444-1.117 1-1.5a78.384 78.384 0 0 1 13-2l7-3.5Z"/><path style="opacity:1" fill="#939292" d="M173.5 217.5h5v7h-5v-7Z"/><path style="opacity:1" fill="#d1d1d0" d="M212.5 217.5h11v7h-11v-7Z"/><path style="opacity:1" fill="#b3b3b2" d="M224.5 217.5h11v7h-11v-7Z"/><path style="opacity:1" fill="#a5a4a3" d="M236.5 217.5h4v7h-4v-7Z"/><path style="opacity:1" fill="#707070" d="M26.5 212.5c.597.235.93.735 1 1.5a96.346 96.346 0 0 0-1.5 11.5c-.706-4.387-.54-8.72.5-13Z"/><path style="opacity:1" fill="#aba9a8" d="M202.5 217.5v6c2.559-.302 4.893.032 7 1 .761.891 1.761 1.558 3 2a11.988 11.988 0 0 1 6-1 867.01 867.01 0 0 1-2 30c.325-7.187-.009-14.187-1-21-3.16-6.548-8.16-8.381-15-5.5a29.01 29.01 0 0 1-3 4.5c-.992 7.148-1.325 14.481-1 22-.992-7.148-1.325-14.481-1-22v-3c2.928-1.137 3.262-2.47 1-4 2.366.367 4.7-.133 7-1.5-7.993-.5-15.993-.666-24-.5v-7h23Z"/><path style="opacity:1" fill="#d4d4d3" d="M202.5 217.5h9c.51 2.888-.156 5.221-2 7-2.107-.968-4.441-1.302-7-1v-6Z"/><path style="opacity:1" fill="#7f8080" d="M409.5 218.5c1.278.282 2.278.949 3 2v7c-.934 1.068-1.268 2.401-1 4-.72-4.23-1.387-8.563-2-13Z"/><path style="opacity:1" fill="#727372" d="M32.5 209.5c-.963 4.961-.963 9.961 0 15-1.873-4.39-2.373-9.056-1.5-14 .383-.556.883-.889 1.5-1Z"/><path style="opacity:1" fill="#898a89" d="M2.5 218.5c-1.214 5.773-1.214 11.607 0 17.5-.596 5.711-1.596 11.211-3 16.5v-10c1.333-5 1.333-10 0-15v-7c.722-1.051 1.722-1.718 3-2Z"/><path style="opacity:1" fill="#a5a4a4" d="M20.5 216.5a62.77 62.77 0 0 1 1.5 13c-2.655-4.065-3.155-8.398-1.5-13Z"/><path style="opacity:1" fill="#848484" d="M40.5 207.5c3.228 3.94 7.228 4.94 12 3-.077 1.25-.744 2.083-2 2.5l-5 1c1.27 4.52 2.604 9.02 4 13.5-4.62-4.217-9.953-5.217-16-3 .11-.617.444-1.117 1-1.5 4.04-.173 8.04-.673 12-1.5-.932-5.189-2.932-9.856-6-14Z"/><path style="opacity:1" fill="#a8a8a7" d="M5.5 220.5c.701 3.063 1.368 6.23 2 9.5l-1 .5c-1.923-3.248-2.256-6.581-1-10Z"/><path style="opacity:1" fill="#8e8e8e" d="M14.5 220.5c.985 3.204 1.485 6.537 1.5 10-2.387-3.094-2.887-6.427-1.5-10Z"/><path style="opacity:1" fill="#777877" d="M379.5 209.5c.617.111 1.117.444 1.5 1 .734 8.333-.599 16.333-4 24a84.902 84.902 0 0 0-.5 13c-1.873-1.396-2.206-3.063-1-5-.639-5.852.361-11.352 3-16.5-5.78-3.756-11.114-3.256-16 1.5a185.505 185.505 0 0 0 4-13.5c-1.558-.21-2.891-.71-4-1.5 1.915-.284 3.581.049 5 1a87.147 87.147 0 0 1-2 8c4.654.847 9.321 1.513 14 2 1.057-4.7 1.057-9.366 0-14Z"/><path style="opacity:1" fill="#e9e37a" d="M128.5 219.5a82.535 82.535 0 0 0-4 21 56.051 56.051 0 0 0-9.5 12c-.77 1.098-1.603 1.098-2.5 0a185.977 185.977 0 0 0-2-3c3.038-2.28 3.705-5.113 2-8.5a21.836 21.836 0 0 1 4-7 11.123 11.123 0 0 0-1-2.5c.996.086 1.829-.248 2.5-1a78.664 78.664 0 0 1 9-12c.383.556.883.889 1.5 1Z"/><path style="opacity:1" fill="#979696" d="M173.5 225.5h10v6h-10v-6Z"/><path style="opacity:1" fill="#a4a3a3" d="M231.5 225.5h9v6h-9v-6Z"/><path style="opacity:1" fill="#c59825" d="M293.5 212.5c2.311 5.457 3.977 11.29 5 17.5-1.805 3.586-.972 6.419 2.5 8.5.626 2.213.459 4.38-.5 6.5a19.953 19.953 0 0 0 3 4.5c-1.396 1.352-2.063 3.019-2 5 .275 5.058.275 10.058 0 15-.996-.086-1.829.248-2.5 1a993.53 993.53 0 0 1-21.5 29c-.433-2.785-1.766-5.119-4-7 3.146-2.964 4.646-6.63 4.5-11 5.979-7.256 9.646-15.59 11-25 .681-10.41.181-20.743-1.5-31 3.897-3.46 5.897-7.793 6-13Z"/><path style="opacity:1" fill="#afafae" d="M195.5 230.5c-3.564.923-7.231 1.256-11 1v-6h11v5Z"/><path style="opacity:1" fill="#c4c3c3" d="M219.5 225.5h11v6h-11v-6Z"/><path style="opacity:1" fill="#d53531" d="M215.5 234.5v21h-18v-22a29.01 29.01 0 0 0 3-4.5c6.84-2.881 11.84-1.048 15 5.5Z"/><path style="opacity:1" fill="#9a9999" d="M341.5 222.5a82.844 82.844 0 0 0 9 5.5c4.054.694 8.054.527 12-.5-2.704 2.803-6.037 3.637-10 2.5-4.809-1.053-8.476-3.553-11-7.5Z"/><path style="opacity:1" fill="#989998" d="M70.5 222.5c-4.386 6.018-10.386 8.518-18 7.5-1.442-.377-2.442-1.21-3-2.5 7.957 2.234 14.957.568 21-5Z"/><path style="opacity:1" fill="#cabe55" d="M115.5 225.5c-1.951 2.602-2.284 5.436-1 8.5-1.236 1.085-2.569 1.918-4 2.5a55.791 55.791 0 0 1 4.5-15 8.43 8.43 0 0 1 .5 4Z"/><path style="opacity:1" fill="#a17e22" d="M298.5 221.5c4.612 8.007 7.112 16.674 7.5 26-2.093-2.544-3.093-5.544-3-9a11.532 11.532 0 0 0-3.5-4.5 6.293 6.293 0 0 0 1-3 49.05 49.05 0 0 1-2-9.5Z"/><path style="opacity:1" fill="#959493" d="M173.5 232.5h5v7h-5v-7Z"/><path style="opacity:1" fill="#a0a09f" d="M194.5 233.5v6h-15v-7c5.195-.321 10.195.013 15 1Z"/><path style="opacity:1" fill="#cececd" d="M218.5 232.5h5v7h-5v-7Z"/><path style="opacity:1" fill="#b3b3b2" d="M224.5 232.5h11v7h-11v-7Z"/><path style="opacity:1" fill="#a4a4a3" d="M236.5 232.5h4v7h-4v-7Z"/><path style="opacity:1" fill="#868585" d="M364.5 235.5a65.75 65.75 0 0 0-7 3c1.536-2.592 3.869-3.592 7-3Z"/><path style="opacity:1" fill="#fafafa" d="M387.5 210.5c-.086.996.248 1.829 1 2.5 6.429 3.785 13.429 5.618 21 5.5.613 4.437 1.28 8.77 2 13v7c-.802-1.452-1.302-3.118-1.5-5-.055 6.68.445 13.347 1.5 20a19.101 19.101 0 0 1-2 8 50.5 50.5 0 0 0-15 1.5c-2.606.792-4.606 2.292-6 4.5a43.53 43.53 0 0 1-8 3.5c-2.359.208-4.526.374-6.5.5a50.382 50.382 0 0 0-2-11c.158 3.959.325 7.959.5 12 .167 14.67 0 29.337-.5 44a24.004 24.004 0 0 1-2.5 6c-2.186 1.323-3.686 3.323-4.5 6a32.653 32.653 0 0 1-3 13 229.026 229.026 0 0 1-14.5 25 232.355 232.355 0 0 1-13.5 12 29.278 29.278 0 0 0-2.5 7c-4.355 4.675-9.355 8.675-15 12-2.698.345-4.698 1.678-6 4-.473 1.406-1.473 2.073-3 2-15.338 8.681-30.671 16.014-46 22-.342.838-1.008 1.172-2 1-.235-.597-.735-.93-1.5-1a118.812 118.812 0 0 1-29.5 3.5 32.653 32.653 0 0 1-13 3c-7.511.171-14.845.671-22 1.5h-4v-1a2.428 2.428 0 0 0 2-.5c-27.248-2.123-52.915-9.79-77-23a319.773 319.773 0 0 0-20-12.5c-3.52-.853-6.187-2.853-8-6a30.593 30.593 0 0 1-8.5-12c-1.129-1.641-2.629-2.641-4.5-3-3.285-1.951-5.951-4.618-8-8a176.498 176.498 0 0 1-17.5-31 50.352 50.352 0 0 0-2-11c-.383-.556-.883-.889-1.5-1-1-.333-1.667-1-2-2a33.038 33.038 0 0 1-2.5-6 676.216 676.216 0 0 1 0-52c1.028-2.344 1.694-4.677 2-7-2.782 4.203-4.116 8.87-4 14-1.736-1.563-3.236-3.23-4.5-5a72.274 72.274 0 0 1 2-19c2.197-5.362 6.197-8.195 12-8.5-2.667-.667-2.667-1.333 0-2 3.11-.612 5.777.221 8 2.5 4.312 4.646 8.645 9.313 13 14-1.238.31-1.238.81 0 1.5a63.58 63.58 0 0 0 13 4 11.532 11.532 0 0 1 4.5 3.5c.173 5.848.673 11.515 1.5 17 .237 1.291-.096 2.291-1 3a2.427 2.427 0 0 0-.5-2c-1.476 4.576-1.81 9.243-1 14a134.091 134.091 0 0 1 5.5 19 7.253 7.253 0 0 1 2.5 2 204.526 204.526 0 0 0 11 22c.816 1.323 1.983 1.989 3.5 2a75.568 75.568 0 0 1 9 8 106.308 106.308 0 0 1 9 8.5 8.43 8.43 0 0 0 4 .5 21.614 21.614 0 0 1 5 4c4.599 7.302 11.266 10.968 20 11 .558 1.29 1.558 2.123 3 2.5 15.819 5.296 32.153 7.796 49 7.5a973.88 973.88 0 0 0 34-2.5c2.609-.864 4.275-2.03 5-3.5.342-.838 1.008-1.172 2-1 .235.597.735.93 1.5 1a66.87 66.87 0 0 1 5.5-1.5c3.237-1.206 5.57-2.706 7-4.5.342-.838 1.008-1.172 2-1 2.272 1.264 4.605 1.098 7-.5a54.53 54.53 0 0 0 6-6.5c2.635-.973 4.635-2.64 6-5 3.099.408 5.433-.759 7-3.5-.228-.399-.562-.565-1-.5 4.969-3.962 9.969-7.962 15-12 4.167-1.437 6.167-4.437 6-9 .238-1.904 1.238-3.238 3-4 1.385-1.074 2.551-2.407 3.5-4a60.952 60.952 0 0 1 4.5-10c2.093-4.641 3.76-9.641 5-15 1.491-2.686 2.157-5.686 2-9a101.526 101.526 0 0 1-1.5-27 10.515 10.515 0 0 0 2.5-3 187.54 187.54 0 0 0 13-3.5c1.824-.66 3.157-1.827 4-3.5 1.871-.359 3.371-1.359 4.5-3 2.51-3.695 5.01-7.362 7.5-11a65.75 65.75 0 0 1 7-3c.992-.172 1.658.162 2 1-.155 1.535-1.322 2.868-3.5 4a16.242 16.242 0 0 0 0 8c-1.193-6.464 1.307-9.297 7.5-8.5 1.447 2.49 2.447 2.657 3 .5l2 2c-1.206 1.937-.873 3.604 1 5a84.902 84.902 0 0 1 .5-13c3.401-7.667 4.734-15.667 4-24-.383-.556-.883-.889-1.5-1-.03-.997.47-1.664 1.5-2a58.506 58.506 0 0 1 6.5 3Z"/><path style="opacity:1" fill="#aaaaa9" d="M405.5 220.5c1.447.634 2.113 1.801 2 3.5a19.175 19.175 0 0 1-2 6.5c-.137-3.053-.137-6.386 0-10Z"/><path style="opacity:1" fill="#8e8e8d" d="M396.5 220.5c1.447.634 2.113 1.801 2 3.5-.25 2.422-1.084 4.589-2.5 6.5.317-3.246.483-6.58.5-10Z"/><path style="opacity:1" fill="#868585" d="M390.5 216.5c1.526.992 2.193 2.492 2 4.5-.144 3.085-.978 5.918-2.5 8.5.155-2.641.655-5.307 1.5-8a20.222 20.222 0 0 1-1-5Z"/><path style="opacity:1" fill="#707070" d="M384.5 212.5c.722.418 1.222 1.084 1.5 2a30.485 30.485 0 0 1 0 11 213.816 213.816 0 0 0-1.5-13Z"/><path style="opacity:1" fill="#888988" d="M366.5 236.5a36.602 36.602 0 0 1 7 4c-.553 2.157-1.553 1.99-3-.5-6.193-.797-8.693 2.036-7.5 8.5a16.242 16.242 0 0 1 0-8c2.178-1.132 3.345-2.465 3.5-4Z"/><path style="opacity:1" fill="#747575" d="M32.5 224.5h1c2.388 5.718 3.554 11.718 3.5 18 3.882-5.361 9.049-7.528 15.5-6.5 1.926.422 2.926 1.589 3 3.5-2.223-2.279-4.89-3.112-8-2.5-2.667.667-2.667 1.333 0 2-5.803.305-9.803 3.138-12 8.5.471-7.9-.529-15.566-3-23Z"/><path style="opacity:1" fill="#909090" d="M357.5 238.5c-2.49 3.638-4.99 7.305-7.5 11-1.129 1.641-2.629 2.641-4.5 3a198.65 198.65 0 0 0 9.5-13c.671-.752 1.504-1.086 2.5-1Z"/><path style="opacity:1" fill="#9c9c9b" d="M173.5 240.5h10v7h-10v-7Z"/><path style="opacity:1" fill="#a9a9a8" d="M194.5 240.5v7h-10v-7h10Z"/><path style="opacity:1" fill="#c7c7c6" d="M218.5 240.5h12v7h-12v-7Z"/><path style="opacity:1" fill="#a6a5a4" d="M231.5 240.5h9v7h-9v-7Z"/><path style="opacity:1" fill="#6c6c6c" d="M48.5 240.5c1.367 3.605 1.2 7.271-.5 11 .238-3.609.405-7.275.5-11Z"/><path style="opacity:1" fill="#99924b" d="M110.5 236.5a40.914 40.914 0 0 1-.5 9l-2 2c-.365-4.02.469-7.687 2.5-11Z"/><path style="opacity:1" fill="#ece98f" d="M124.5 240.5a111.911 111.911 0 0 0 1 19c-.617-.111-1.117-.444-1.5-1a73.9 73.9 0 0 1-10.5 13c-1.082-1.827-1.082-3.827 0-6-1.97-4.153-2.303-8.487-1-13 .897 1.098 1.73 1.098 2.5 0a56.051 56.051 0 0 1 9.5-12Z"/><path style="opacity:1" fill="#616160" d="M194.5 233.5h1c-.325 7.519.008 14.852 1 22v1c-2.559.302-4.893-.032-7-1 .667 0 1-.333 1-1h-1v-5h-10l5-2h10v-14Z"/><path style="opacity:1" fill="#707070" d="M358.5 240.5c-.124 4.146.043 8.48.5 13-1.764-4.295-1.931-8.629-.5-13Z"/><path style="opacity:1" fill="#717070" d="M52.5 240.5c.617.111 1.117.444 1.5 1 .854 4.125.52 8.125-1 12 .746-4.338.58-8.672-.5-13Z"/><path style="opacity:1" fill="#919090" d="M173.5 248.5h5v6h-5v-6Z"/><path style="opacity:1" fill="#a2a2a1" d="M179.5 249.5h10v5h-10v-5Z"/><path style="opacity:1" fill="#b2b1b1" d="M190.5 254.5v-5h3v5h-3Z"/><path style="opacity:1" fill="#c5c5c4" d="M218.5 248.5h5v7h-5v-7Z"/><path style="opacity:1" fill="#a1a09f" d="M236.5 248.5h4v7h-4v-7Z"/><path style="opacity:1" fill="#b2b1b1" d="M224.5 248.5h11v7h-11v-7Z"/><path style="opacity:1" fill="#6a6a69" d="M57.5 246.5c.722.418 1.222 1.084 1.5 2 .667 3 .667 6 0 9a247.6 247.6 0 0 0-1.5-11Z"/><path style="opacity:1" fill="#6c6c6b" d="M353.5 246.5c.597.235.93.735 1 1.5a74.344 74.344 0 0 0-1.5 9.5c-.678-3.721-.511-7.388.5-11Z"/><path style="opacity:1" fill="#7a7b7b" d="M6.5 246.5c-1.234 4.368-1.234 8.701 0 13-2.591-4.299-2.591-8.632 0-13Z"/><path style="opacity:1" fill="#7b7b7b" d="M405.5 247.5c1.472 1.617 2.139 3.617 2 6 .135 2.308-.531 4.308-2 6 1.228-3.67 1.228-7.67 0-12Z"/><path style="opacity:1" fill="#717272" d="M15.5 248.5c-.026 3.867.14 7.867.5 12-1.784-3.863-1.95-7.863-.5-12Z"/><path style="opacity:1" fill="#797a79" d="M21.5 248.5c.122 4.724.122 9.391 0 14-1.22-4.683-1.22-9.35 0-14Z"/><path style="opacity:1" fill="#6f6f6f" d="M394.5 249.5c1.066-1.192 1.899-.859 2.5 1 .903 3.533.57 6.867-1 10-.037-1.771.13-3.604.5-5.5.107-2.221-.56-4.054-2-5.5Z"/><path style="opacity:1" fill="#727272" d="M11.5 247.5c.543.06.876.393 1 1-2.035 3.531-2.535 7.198-1.5 11-1.997-4.047-1.83-8.047.5-12Z"/><path style="opacity:1" fill="#4f2a27" d="M197.5 233.5v22h18v-21c.991 6.813 1.325 13.813 1 21v1h-20v-1c-.325-7.519.008-14.852 1-22Z"/><path style="opacity:1" fill="#5e4d1a" d="M305.5 251.5c.06-.543.393-.876 1-1 1.318 6.822 1.318 13.489 0 20 .323-6.522-.01-12.855-1-19Z"/><path style="opacity:1" fill="gray" d="M389.5 248.5c1.547 2.307 2.213 4.973 2 8 .103 2.537-.397 4.871-1.5 7 .775-4.962.608-9.962-.5-15Z"/><path style="opacity:1" fill="#727272" d="M399.5 247.5c1.29.558 2.123 1.558 2.5 3 .89 3.206.557 6.206-1 9 .927-4.117.427-8.117-1.5-12Z"/><path style="opacity:1" fill="#8f8f8f" d="M345.5 252.5c-.843 1.673-2.176 2.84-4 3.5a187.54 187.54 0 0 1-13 3.5c.558-1.29 1.558-2.123 3-2.5 4.932-.895 9.599-2.395 14-4.5Z"/><path style="opacity:1" fill="#8e6134" d="M247.5 258.5c.709-.904 1.709-1.237 3-1a9740.61 9740.61 0 0 1 13 11c-4.252 1.428-6.418 4.428-6.5 9a73.412 73.412 0 0 0-7.5-7 71.254 71.254 0 0 0 4-2 94.189 94.189 0 0 0-6-10Z"/><path style="opacity:1" fill="#9a9a99" d="M68.5 253.5c4.92 1.648 9.92 3.148 15 4.5 4.004 3.331 5.67 7.665 5 13a52.652 52.652 0 0 1-1 8.5c-.827-5.485-1.327-11.152-1.5-17a11.532 11.532 0 0 0-4.5-3.5 63.58 63.58 0 0 1-13-4c-1.238-.69-1.238-1.19 0-1.5Z"/><path style="opacity:1" fill="#6f6f6f" d="M35.5 247.5a72.274 72.274 0 0 0-2 19c-1.147-4.146-1.314-8.48-.5-13 .24-2.352 1.074-4.352 2.5-6Z"/><path style="opacity:1" fill="#6b6c6c" d="M376.5 247.5c1.427 1.648 2.26 3.648 2.5 6a42.479 42.479 0 0 1 0 13 119.063 119.063 0 0 0-2.5-19Z"/><path style="opacity:1" fill="#8d8e8d" d="M411.5 238.5c-.284 1.915.049 3.581 1 5v16c-.722 1.051-1.722 1.718-3 2a19.101 19.101 0 0 0 2-8 121.122 121.122 0 0 1-1.5-20c.198 1.882.698 3.548 1.5 5Z"/><path style="opacity:1" fill="#868786" d="M27.5 248.5c.597.235.93.735 1 1.5-1.954 4.743-2.454 9.576-1.5 14.5-1.942-5.374-1.775-10.707.5-16Z"/><path style="opacity:1" fill="#6d6d6d" d="M342.5 257.5c-.118 3.813.048 7.813.5 12-1.757-3.96-1.923-7.96-.5-12Z"/><path style="opacity:1" fill="#aca75e" d="M108.5 261.5c-.961 1.765-1.295 3.765-1 6-1.148-4.481-1.315-9.148-.5-14 1.232-2.73 2.065-2.563 2.5.5a29.2 29.2 0 0 0-1 7.5Z"/><path style="opacity:1" fill="#969696" d="M2.5 261.5c5.052-.05 10.052.45 15 1.5 3.095.935 5.429 2.769 7 5.5-6.272-4.153-13.272-5.986-21-5.5-.556-.383-.89-.883-1-1.5Z"/><path style="opacity:1" fill="#6e6e6e" d="M68.5 257.5c.617.111 1.117.444 1.5 1 .837 3.795.504 7.461-1 11 .734-4.007.567-8.007-.5-12Z"/><path style="opacity:1" fill="#3e7044" d="M235.5 257.5c4.1-.263 8.1.07 12 1a94.189 94.189 0 0 1 6 10 18.453 18.453 0 0 1-6-.5 36.61 36.61 0 0 0-9.5-7.5 34.041 34.041 0 0 1-7.5 1.5c6.507 2.006 11.674 5.839 15.5 11.5 2.029 2.626 1.195 3.626-2.5 3a161.223 161.223 0 0 1-23-9 81.31 81.31 0 0 1-11-5 195.318 195.318 0 0 1 26-2.5c-2.342-1.392-2.342-2.225 0-2.5Z"/><path style="opacity:1" fill="#deda7e" d="m108.5 261.5 2 4c-1.908 4.874-.741 8.874 3.5 12 .495 1.973.662 3.973.5 6-1.485-3.919-2.485-3.586-3 1-3.35-5.079-4.683-10.746-4-17-.295-2.235.039-4.235 1-6Z"/><path style="opacity:1" fill="#7c7c7c" d="M383.5 248.5c3.283 4.957 3.783 10.29 1.5 16-.419-2.18-.252-4.346.5-6.5-.75-3.163-1.416-6.33-2-9.5Z"/><path style="opacity:1" fill="#8e8e8e" d="M73.5 260.5c.69-1.274 1.523-1.274 2.5 0 2.106 3.903 1.772 7.57-1 11 .482-3.26.482-6.593 0-10-.383-.556-.883-.889-1.5-1Z"/><path style="opacity:1" fill="#8c8c8c" d="M336.5 259.5c2.501.011 2.668.678.5 2-.482 3.407-.482 6.74 0 10-3.133-3.871-3.3-7.871-.5-12Z"/><path style="opacity:1" fill="#e9df6b" d="M125.5 259.5a33.691 33.691 0 0 0 2 9 160.621 160.621 0 0 1-11 13c.131-3.721-.869-7.054-3-10a73.9 73.9 0 0 0 10.5-13c.383.556.883.889 1.5 1Z"/><path style="opacity:1" fill="#989897" d="M409.5 261.5c-.111.617-.444 1.117-1 1.5-7.151-.255-13.818 1.245-20 4.5 1.394-2.208 3.394-3.708 6-4.5a50.5 50.5 0 0 1 15-1.5Z"/><path style="opacity:1" fill="#747574" d="M81.5 263.5c.658 1.293.992 2.793 1 4.5.077 2.051-.423 3.884-1.5 5.5.317-3.246.483-6.58.5-10Z"/><path style="opacity:1" fill="#211e19" d="M220.5 267.5a161.223 161.223 0 0 0 23 9 4.934 4.934 0 0 0-3 .5 154.002 154.002 0 0 1 15 7c-8.315-.629-16.315-2.462-24-5.5a66.515 66.515 0 0 1-6-7.5 20.64 20.64 0 0 0-6-2c.556-.383.889-.883 1-1.5Z"/><path style="opacity:1" fill="#865b32" d="M272.5 271.5c2.286.095 4.286.762 6 2 1.053 2.372.386 4.372-2 6a102.18 102.18 0 0 0-6-7.5 2.428 2.428 0 0 1 2-.5Z"/><path style="opacity:1" fill="#7a7a7a" d="M388.5 267.5c-3.665 4.118-8.332 6.118-14 6l-2-1c-.175-4.041-.342-8.041-.5-12a50.382 50.382 0 0 1 2 11c1.974-.126 4.141-.292 6.5-.5a43.53 43.53 0 0 0 8-3.5Z"/><path style="opacity:1" fill="#dec642" d="M127.5 268.5c1.8 4.26 4.133 8.26 7 12-2.652 5.309-6.319 9.642-11 13a8.43 8.43 0 0 0-.5-4l-6-4a8.43 8.43 0 0 1-.5-4 160.621 160.621 0 0 0 11-13Z"/><path style="opacity:1" fill="#d5a61c" d="M301.5 269.5a17.341 17.341 0 0 1-3.5 7l-1 9-6 4c-1.266 4.284-3.766 7.784-7.5 10.5-2.212.789-4.212.622-6-.5a993.53 993.53 0 0 0 21.5-29c.671-.752 1.504-1.086 2.5-1Z"/><path style="opacity:1" fill="#cda216" d="M305.5 251.5c.99 6.145 1.323 12.478 1 19 .25 4.912-1.084 9.245-4 13a12.066 12.066 0 0 1-4 3c-.109-5.494 1.724-10.16 5.5-14a155.864 155.864 0 0 0 1.5-21Z"/><path style="opacity:1" fill="#966535" d="M172.5 255.5h17c2.107.968 4.441 1.302 7 1h20c6.522-.323 12.855.01 19 1-2.342.275-2.342 1.108 0 2.5a195.318 195.318 0 0 0-26 2.5 81.31 81.31 0 0 0 11 5c-.111.617-.444 1.117-1 1.5a20.64 20.64 0 0 1 6 2 66.515 66.515 0 0 0 6 7.5c7.685 3.038 15.685 4.871 24 5.5a154.002 154.002 0 0 0-15-7 4.934 4.934 0 0 1 3-.5 16.154 16.154 0 0 0 8 2.5 13.92 13.92 0 0 1-3-4c3.642 1.314 7.309 2.981 11 5 3.487 1.95 3.821 4.283 1 7a89.694 89.694 0 0 1-20.5-3.5c-6.613 1.223-12.113 4.39-16.5 9.5a45.296 45.296 0 0 1-7-.5c-3.484-.665-7.151-.999-11-1-5.181-.209-10.181.457-15 2-4.983-6.119-11.483-9.452-19.5-10-5.939 2.577-12.106 3.41-18.5 2.5a4.933 4.933 0 0 1-1-2.5 31.291 31.291 0 0 1 4.5-5 20.683 20.683 0 0 0-.5-9 87.567 87.567 0 0 0 6-11 64.947 64.947 0 0 0 11-3Z"/><path style="opacity:1" fill="#1e1f1a" d="M192.5 264.5c.763-.768 1.763-1.268 3-1.5-3-.667-6-.667-9 0a4254.997 4254.997 0 0 1-24 16c1.428.579 2.762.412 4-.5.597.639 1.43.972 2.5 1a23.093 23.093 0 0 0 9.5-3.5 163.52 163.52 0 0 0 15-1.5c-1.554 1.395-1.221 2.061 1 2 1.883-.376 3.383-1.376 4.5-3 .09 2.268-1.077 3.768-3.5 4.5l-15 1c-2.084.697-3.751 1.864-5 3.5a59.734 59.734 0 0 1-11.5-1c-3.073.023-5.74 1.023-8 3-.667-.667-.667-1.333 0-2 3.912-4.583 8.412-8.417 13.5-11.5-3.31.653-6.644.486-10-.5.355-1.022 1.022-1.689 2-2 .291 1.149 1.124 1.816 2.5 2a91.567 91.567 0 0 0 6.5-1.5 61.16 61.16 0 0 1 2-5.5 8.43 8.43 0 0 0 .5 4c5.266-4.813 11.433-7.813 18.5-9a129.588 129.588 0 0 1 13 4.5 171.684 171.684 0 0 1-12 1.5Z"/><path style="opacity:1" fill="#3e7345" d="M214.5 277.5c1.271 2.434 3.271 3.934 6 4.5a32.462 32.462 0 0 1-8 .5 17.518 17.518 0 0 1-6.5-5c-1.714.576-2.881 1.743-3.5 3.5a4.934 4.934 0 0 1-3 .5c-7.211 2.322-14.544 2.655-22 1h-2c1.249-1.636 2.916-2.803 5-3.5l15-1c2.423-.732 3.59-2.232 3.5-4.5-1.117 1.624-2.617 2.624-4.5 3-2.221.061-2.554-.605-1-2v-1c5.731-2.607 11.731-3.441 18-2.5.632 2.415 1.632 4.582 3 6.5Z"/><path style="opacity:1" fill="#1f1e19" d="M231.5 278.5c-.291 1.149-1.124 1.816-2.5 2-5.989-1.316-10.989-4.316-15-9 .135 1.925.302 3.925.5 6-1.368-1.918-2.368-4.085-3-6.5-6.269-.941-12.269-.107-18 2.5-.111-.617-.444-1.117-1-1.5 6.968-3.497 14.302-5.164 22-5a100.657 100.657 0 0 1 9 10c2.514 1.252 5.18 1.752 8 1.5Z"/><path style="opacity:1" fill="#3d6940" d="M192.5 264.5c-7.249 7.099-15.916 11.766-26 14-1.238.912-2.572 1.079-4 .5 7.95-5.261 15.95-10.594 24-16 3-.667 6-.667 9 0-1.237.232-2.237.732-3 1.5Z"/><path style="opacity:1" fill="#3f6a41" d="M172.5 263.5a61.16 61.16 0 0 0-2 5.5 91.567 91.567 0 0 1-6.5 1.5c-1.376-.184-2.209-.851-2.5-2-.3-6.461 2.867-9.461 9.5-9 4.095.105 4.595 1.438 1.5 4Z"/><path style="opacity:1" fill="#cda827" d="M134.5 280.5c1.192 4.256 3.192 8.256 6 12-2.706 2.024-4.039 4.69-4 8a24.93 24.93 0 0 1-8-1c-.667-2.667-2.333-4.333-5-5v-1c4.681-3.358 8.348-7.691 11-13Z"/><path style="opacity:1" fill="#c09525" d="M178.5 288.5c-2.968 1.977-5.302 4.644-7 8-7.657-.853-12.49 2.48-14.5 10-1.52-5.851-4.02-6.351-7.5-1.5-5.007.504-8.341-1.662-10-6.5.769-2.604 2.436-4.438 5-5.5-6.954-7.279-6.287-13.946 2-20 2-.667 4-.667 6 0 1.054 1.388 1.22 2.888.5 4.5a38.026 38.026 0 0 1-6.5 2.5c-2.686 3.476-2.353 3.976 1 1.5 1.074 6.901 5.074 9.735 12 8.5-2 2.667-4.333 5-7 7-3.072.456-6.072.456-9 0 7.331 3.528 12.998 1.528 17-6 5.679-4.437 11.679-5.27 18-2.5Z"/><path style="opacity:1" fill="#3a4930" d="M214.5 277.5a46.428 46.428 0 0 0 7 3.5c3.053.179 6.053.679 9 1.5a55.285 55.285 0 0 1-11 2c-2.655.06-4.989-.607-7-2a32.462 32.462 0 0 0 8-.5c-2.729-.566-4.729-2.066-6-4.5Z"/><path style="opacity:1" fill="#9c9d9c" d="M42.5 322.5c-2.459-1.552-3.959-3.885-4.5-7a882.407 882.407 0 0 1-.5-42c-5.102.081-9.435-1.585-13-5 2.65.99 5.317 1.99 8 3l2-1a6.846 6.846 0 0 1-1-4c1.264 1.77 2.764 3.437 4.5 5-.116-5.13 1.218-9.797 4-14-.306 2.323-.972 4.656-2 7a676.216 676.216 0 0 0 0 52 33.038 33.038 0 0 0 2.5 6Z"/><path style="opacity:1" fill="#38462e" d="M199.5 281.5c-.111.617-.444 1.117-1 1.5-7.147 2.986-14.147 2.82-21-.5 7.456 1.655 14.789 1.322 22-1Z"/><path style="opacity:1" fill="#e6b705" d="M302.5 283.5a42.307 42.307 0 0 1-3.5 11c-4.529 5.722-8.029 12.055-10.5 19-.925 1.062-1.925 1.062-3 0 .236-3.109-.097-6.109-1-9a5.727 5.727 0 0 1-1-3c4.465-3.125 7.798-7.125 10-12 2.098-.457 3.764-1.457 5-3a12.066 12.066 0 0 0 4-3Z"/><path style="opacity:1" fill="#989897" d="M328.5 259.5a10.515 10.515 0 0 1-2.5 3 101.526 101.526 0 0 0 1.5 27c.157 3.314-.509 6.314-2 9a148.918 148.918 0 0 0-2-27.5 30.124 30.124 0 0 1 1.5-9.5c.816-1.323 1.983-1.989 3.5-2Z"/><path style="opacity:1" fill="#ccad2b" d="M236.5 287.5c1.478-.262 2.811.071 4 1a42.252 42.252 0 0 0-5 7c-5.464 2.117-7.464 6.117-6 12-1.89.203-3.39-.463-4.5-2-1.642-9.52 2.191-15.52 11.5-18Z"/><path style="opacity:1" fill="#9a6736" d="M312.5 290.5c.053 2.561-.947 4.561-3 6a31.71 31.71 0 0 0-6-2c.518-2.401 1.685-4.401 3.5-6a36.87 36.87 0 0 0 5.5 2Z"/><path style="opacity:1" fill="#dbc240" d="M114.5 283.5c.502 4.09 2.835 6.09 7 6-.284 1.915.049 3.581 1 5 .039 2.589-.961 4.589-3 6-3.981-4.569-6.648-9.903-8-16 .515-4.586 1.515-4.919 3-1Z"/><path style="opacity:1" fill="#946435" d="M108.5 291.5c1.585.502 2.085 1.502 1.5 3-2.058.729-3.891 1.729-5.5 3-.996.086-1.829-.248-2.5-1a11.333 11.333 0 0 0-1.5-3.5 46.052 46.052 0 0 0 8-1.5Z"/><path style="opacity:1" fill="#5b5752" d="M216.5 292.5c-7.008-.166-14.008 0-21 .5-1.82.2-3.153 1.034-4 2.5-.838-.342-1.172-1.008-1-2 4.819-1.543 9.819-2.209 15-2 3.849.001 7.516.335 11 1Z"/><path style="opacity:1" fill="#d3d3d2" d="M216.5 292.5c1.714 1.238 3.714 1.905 6 2a60.931 60.931 0 0 1-.5 11c-.956-1.394-2.289-2.061-4-2-3.367 2.019-7.034 3.019-11 3a28.686 28.686 0 0 1-11.5-3c-1.529.029-2.696.696-3.5 2a50.464 50.464 0 0 1-.5-10c.847-1.466 2.18-2.3 4-2.5 6.992-.5 13.992-.666 21-.5Z"/><path style="opacity:1" fill="#362d19" d="M123.5 294.5c2.667.667 4.333 2.333 5 5-2-1.333-3.667-3-5-5Z"/><path style="opacity:1" fill="#979696" d="M113.5 309.5c-1.291-.237-2.291.096-3 1-1.911-.074-3.078-1.074-3.5-3a42.638 42.638 0 0 0-3.5-8c.363-.683.696-1.35 1-2 2.395-.863 4.729-.863 7 0a35.145 35.145 0 0 0 5 10 44.093 44.093 0 0 0-3 2Z"/><path style="opacity:1" fill="#9a9998" d="M303.5 295.5c2.267.923 4.6 1.756 7 2.5a122.583 122.583 0 0 1-4.5 9.5c-1.789 1.729-3.956 2.396-6.5 2a31.147 31.147 0 0 0-2-2c2.541-3.833 4.541-7.833 6-12Z"/><path style="opacity:1" fill="#bf9424" d="M237.5 311.5c-.93-10.245 3.236-13.245 12.5-9 1.126 10.74 4.959 11.74 11.5 3 1.571 2.593 3.904 3.593 7 3 2.136 5.535.969 10.202-3.5 14 .634-5.181-1.533-8.181-6.5-9a52.56 52.56 0 0 1-1.5 7c-1.438 1.218-3.105 1.885-5 2a25.772 25.772 0 0 0-7.5-3.5 22.755 22.755 0 0 0 5-4c-1.779.044-3.445.711-5 2-4.666 1.497-8-.003-10-4.5-.825-.886-1.825-1.219-3-1 .454 2.64 1.621 4.973 3.5 7a11.333 11.333 0 0 0 3.5 1.5c-5.259 2.425-10.092 1.925-14.5-1.5-1.936-7.415.897-10.082 8.5-8a30.334 30.334 0 0 1-.5-10 72.009 72.009 0 0 1 3.5-5 42.252 42.252 0 0 1 5-7c-1.189-.929-2.522-1.262-4-1 4.684-1.335 9.351-.835 14 1.5a553.365 553.365 0 0 1 9 9c3.914 2.18 7.581 1.846 11-1-2.928.456-5.928.456-9 0a25.583 25.583 0 0 1-7-7c6.986 1.34 10.82-1.494 11.5-8.5 1.246 1.272 2.413 1.605 3.5 1-2.418-2.295-5.252-3.962-8.5-5-.667-1.333-.667-2.667 0-4 7.474-.906 11.974 2.594 13.5 10.5-.252 3.931-1.919 7.097-5 9.5 6.221 2.759 6.554 6.259 1 10.5-4.129 2.346-7.462 1.512-10-2.5a17.808 17.808 0 0 0-3.5 5c-2.415-8.459-7.915-11.626-16.5-9.5-5.062 2.733-6.895 6.9-5.5 12.5.417 1.256 1.25 1.923 2.5 2Z"/><path style="opacity:1" fill="#4f564a" d="M93.5 271.5h1a170.257 170.257 0 0 0 5 19c2.998 1.143 5.998 1.143 9 0v1a46.052 46.052 0 0 1-8 1.5 11.333 11.333 0 0 1 1.5 3.5c.671.752 1.504 1.086 2.5 1-.304.65-.637 1.317-1 2a42.638 42.638 0 0 1 3.5 8c.422 1.926 1.589 2.926 3.5 3-.418.722-1.084 1.222-2 1.5a214.715 214.715 0 0 1 7 11.5c-12.547-14.932-19.88-32.266-22-52Z"/><path style="opacity:1" fill="#919191" d="M86.5 282.5c-.166 5.344 0 10.677.5 16a58.3 58.3 0 0 1 5 14 995.542 995.542 0 0 0 15.5 27c-1.517-.011-2.684-.677-3.5-2a204.526 204.526 0 0 1-11-22 7.253 7.253 0 0 0-2.5-2 134.091 134.091 0 0 0-5.5-19c-.81-4.757-.476-9.424 1-14 .464.594.631 1.261.5 2Z"/><path style="opacity:1" fill="#a78710" d="M293.5 308.5a17.341 17.341 0 0 1 3.5-7c-.085 2.836-1.251 5.169-3.5 7Z"/><path style="opacity:1" fill="#8e8e8d" d="M325.5 298.5c-1.24 5.359-2.907 10.359-5 15 .303-5.577 1.97-10.577 5-15Z"/><path style="opacity:1" fill="#997a20" d="M120.5 308.5c-2.249-1.831-3.415-4.164-3.5-7a17.341 17.341 0 0 1 3.5 7Z"/><path style="opacity:1" fill="#1e1c17" d="M237.5 311.5c1.391-2.514 3.057-5.014 5-7.5 4.618.857 6.118 3.69 4.5 8.5-3.395 2.534-6.562 2.2-9.5-1Z"/><path style="opacity:1" fill="#585852" d="M316.5 283.5c-1.861 10.93-5.861 20.93-12 30 .086-.996-.248-1.829-1-2.5-1.558-.21-2.891-.71-4-1.5 2.544.396 4.711-.271 6.5-2a122.583 122.583 0 0 0 4.5-9.5 86.376 86.376 0 0 1-7-2.5v-1a31.71 31.71 0 0 1 6 2c2.053-1.439 3.053-3.439 3-6l4-7Z"/><path style="opacity:1" fill="#c29623" d="M133.5 306.5c2.129 2.595 3.462 5.595 4 9 1.89.203 3.39-.463 4.5-2 .874 4.435 3.208 7.769 7 10a3.943 3.943 0 0 0 2-1l1-6a3.647 3.647 0 0 1 1.5-1c.511 2.384 1.511 4.384 3 6 1.061 2.032 2.728 3.366 5 4-1.395 2.361-3.395 4.028-6 5a18.33 18.33 0 0 0-6-4l-4 3a129.591 129.591 0 0 1-12-9.5c-4.36-2.265-8.193-1.765-11.5 1.5a18.453 18.453 0 0 1-.5-6c2.235.295 4.235-.039 6-1 1.72-2.158 2.553-4.825 2.5-8 .986-.671 2.153-.671 3.5 0Z"/><path style="opacity:1" fill="#d5a717" d="M283.5 301.5a5.727 5.727 0 0 0 1 3c-1.603-.188-2.937.312-4 1.5.949.617 1.782.451 2.5-.5.483.948.649 1.948.5 3a309.04 309.04 0 0 0-12.5 16c-.692.937-.525 1.603.5 2-.645 1.312-1.645 2.312-3 3a19.953 19.953 0 0 0-4.5-3 31.633 31.633 0 0 0-5.5 4c-2.605-.972-4.605-2.639-6-5 4.533-1.864 7.199-5.197 8-10a3.647 3.647 0 0 1 1.5 1l1 6c2.044 1.272 3.878.939 5.5-1a17.023 17.023 0 0 0 3.5-8c1.11 1.537 2.61 2.203 4.5 2 .563-2.41 1.063-4.743 1.5-7l-3.5 5c-2.019-1.69-4.019-3.356-6-5 3.039-1.956 5.872-4.29 8.5-7 2.163 1.268 4.33 1.268 6.5 0Z"/><path style="opacity:1" fill="#4e4117" d="M284.5 304.5c.903 2.891 1.236 5.891 1 9-1.713-1.135-2.38-2.802-2-5a4.934 4.934 0 0 0-.5-3c-.718.951-1.551 1.117-2.5.5 1.063-1.188 2.397-1.688 4-1.5Z"/><path style="opacity:1" fill="#9f9f9e" d="m372.5 272.5 2 1c.167 14.004 0 28.004-.5 42-.541 3.115-2.041 5.448-4.5 7a24.004 24.004 0 0 0 2.5-6c.5-14.663.667-29.33.5-44Z"/><path style="opacity:1" fill="#c39822" d="M122.5 294.5h1c1.333 2 3 3.667 5 5 2.275 2.889 5.108 3.556 8.5 2 4.063 6.06 9.23 7.394 15.5 4 6.844 8.788 10.844 7.622 12-3.5 9.435-3.396 13.101-.229 11 9.5-4.218-10.725-7.218-10.392-9 1-.838.342-1.172 1.008-1 2-.438-.065-.772.101-1 .5l4 4a1039.636 1039.636 0 0 1-6.5 3.5 47.499 47.499 0 0 0-5.5-1 41.541 41.541 0 0 1-1-8c-4.967.819-7.134 3.819-6.5 9-4.109-3.885-5.443-8.551-4-14a38.929 38.929 0 0 1-5.5 5c-1.308-2.964-3.308-5.297-6-7-1.085-2.082-2.585-2.416-4.5-1a55.146 55.146 0 0 1-1.5 9c-1.44-.863-2.774-.863-4 0a12.805 12.805 0 0 1-3-6c1.385 1.074 2.551 2.407 3.5 4-.784-4.176-2.284-8.176-4.5-12 2.039-1.411 3.039-3.411 3-6Z"/><path style="opacity:1" fill="#2e2719" d="M133.5 306.5c-1.347-.671-2.514-.671-3.5 0 .053 3.175-.78 5.842-2.5 8a55.146 55.146 0 0 0 1.5-9c1.915-1.416 3.415-1.082 4.5 1Z"/><path style="opacity:1" fill="#3e7647" d="M202.5 308.5c2.804-1.138 5.804-1.305 9-.5-1.55 4.923-.884 9.59 2 14-.43 1.434-1.264 2.601-2.5 3.5a12.93 12.93 0 0 0-.5 5h-7a12.93 12.93 0 0 0-.5-5c-1.236-.899-2.07-2.066-2.5-3.5 2.698-4.388 3.365-8.888 2-13.5Z"/><path style="opacity:1" fill="#d2a612" d="M193.5 306.5c4.831-.833 7.164 1.167 7 6-.082 5.672-2.748 9.506-8 11.5-8.833 2.107-17.5 1.44-26-2 5.329.16 10.662.66 16 1.5 4.371.433 7.538-1.233 9.5-5a88.581 88.581 0 0 1 1.5-12Z"/><path style="opacity:1" fill="#ceac2a" d="M227.5 323.5c-.709.904-1.709 1.237-3 1-9.746-2.42-12.746-8.254-9-17.5 1.941-.743 3.774-.576 5.5.5l1 11c1.076 2.579 2.909 4.246 5.5 5Z"/><path style="opacity:1" fill="#e6b802" d="M283.5 308.5c-.38 2.198.287 3.865 2 5 1.779 1.844 4.112 2.51 7 2 .285 1.788-.048 3.455-1 5-3.529-2.377-7.196-2.544-11-.5-2.323 3.156-5.323 5.323-9 6.5-1.025-.397-1.192-1.063-.5-2a309.04 309.04 0 0 1 12.5-16Z"/><path style="opacity:1" fill="#417548" d="M113.5 309.5c3.795-.541 5.795 1.125 6 5-1.778 4.281-.944 7.947 2.5 11a25.513 25.513 0 0 1 4.5-4 32.444 32.444 0 0 0 6 1.5 82.501 82.501 0 0 0 10 7.5c-.825.886-1.825 1.219-3 1a81.83 81.83 0 0 0-9-1c-3.027-.213-5.693.453-8 2a45.728 45.728 0 0 1-7-9 214.715 214.715 0 0 0-7-11.5c.916-.278 1.582-.778 2-1.5.709-.904 1.709-1.237 3-1Z"/><path style="opacity:1" fill="#cda40b" d="M293.5 308.5c-.295 1.923-1.128 3.59-2.5 5-.249-2.168.584-3.835 2.5-5Z"/><path style="opacity:1" fill="#daad0d" d="M178.5 288.5c9.211 2.753 12.378 8.753 9.5 18-1.011.837-2.178 1.17-3.5 1 .731-4.103-.269-7.603-3-10.5-1.333-.667-2.667-.667-4 0 2.167.833 3.667 2.333 4.5 4.5a64.934 64.934 0 0 1-.5 9c7.603-2.082 10.436.585 8.5 8a6.978 6.978 0 0 1-3.5 2.5c-3.711.825-7.378.659-11-.5 3.537-2.187 5.87-5.187 7-9-1.175-.219-2.175.114-3 1-3.844 5.862-8.511 6.529-14 2-.172-.992.162-1.658 1-2 4.924 2.644 9.091 1.644 12.5-3 1.11-6.45-1.39-10.783-7.5-13 1.698-3.356 4.032-6.023 7-8Z"/><path style="opacity:1" fill="#232017" d="M133.5 306.5c2.692 1.703 4.692 4.036 6 7a38.929 38.929 0 0 0 5.5-5c-1.443 5.449-.109 10.115 4 14-.634-5.181 1.533-8.181 6.5-9a41.541 41.541 0 0 0 1 8c-1.489-1.616-2.489-3.616-3-6a3.647 3.647 0 0 0-1.5 1l-1 6a3.943 3.943 0 0 1-2 1c-3.792-2.231-6.126-5.565-7-10-1.11 1.537-2.61 2.203-4.5 2-.538-3.405-1.871-6.405-4-9Z"/><path style="opacity:1" fill="#8c8c8c" d="M320.5 313.5a60.952 60.952 0 0 0-4.5 10c-.949 1.593-2.115 2.926-3.5 4 1.821-4.312 3.654-8.645 5.5-13 .671-.752 1.504-1.086 2.5-1Z"/><path style="opacity:1" fill="#427449" d="M299.5 309.5c1.109.79 2.442 1.29 4 1.5.752.671 1.086 1.504 1 2.5a61.453 61.453 0 0 1-14 18c-5.858-.322-11.525.011-17 1h-1c-2.146-.196-2.312-1.196-.5-3a29.5 29.5 0 0 0 9.5-6.5 32.444 32.444 0 0 0 6-1.5c2.892 4.864 5.392 4.864 7.5 0 .128-3.014.128-6.014 0-9 .589-2.363 2.089-3.363 4.5-3Z"/><path style="opacity:1" fill="#9b7a21" d="M224.5 324.5c1.291.237 2.291-.096 3-1a425.889 425.889 0 0 1 21-1.5l-13 3c-3.858.81-7.524.643-11-.5Z"/><path style="opacity:1" fill="#b98d22" d="M185.5 332.5c4.284.577 7.284-1.09 9-5-.825-.886-1.825-1.219-3-1 2.48-1.617 5.146-1.95 8-1 1.206 2.016 1.206 4.016 0 6-4.689 2.073-9.356 2.407-14 1Z"/><path style="opacity:1" fill="#bf9424" d="M245.5 323.5c3.852-.076 6.185 1.757 7 5.5-.349 2.933-1.516 5.433-3.5 7.5-1.117-1.449-1.784-3.116-2-5a9.454 9.454 0 0 0-2.5-1.5 150.232 150.232 0 0 0-21.5 3.5 22.106 22.106 0 0 1-7.5-1.5c-1.68-.347-2.68-1.347-3-3 .762-2.034 2.095-3.534 4-4.5 9.91 4.004 19.577 3.67 29-1Z"/><path style="opacity:1" fill="#e0b30b" d="M191.5 326.5c1.175-.219 2.175.114 3 1-1.716 3.91-4.716 5.577-9 5l-14-3a9.201 9.201 0 0 0-4.5 2c-.216 1.884-.883 3.551-2 5-3.074-3.284-3.741-6.951-2-11a14.436 14.436 0 0 1 5-1 144.686 144.686 0 0 1 16.5 3 29.536 29.536 0 0 0 7-1Z"/><path style="opacity:1" fill="#3d7045" d="M149.5 328.5c7.196 7.141 6.196 8.474-3 4a514.367 514.367 0 0 0 3-4Z"/><path style="opacity:1" fill="#456a47" d="M268.5 333.5c-2.099 1.112-4.433 1.779-7 2-1.528-.017-2.028-.684-1.5-2 2.987-5.272 5.82-5.272 8.5 0Z"/><path style="opacity:1" fill="#7a7a79" d="M139.5 331.5v1c-3.578.744-5.578 3.077-6 7 .442 1.239 1.109 2.239 2 3-.667 0-1 .333-1 1a69.029 69.029 0 0 1-12-11c2.307-1.547 4.973-2.213 8-2a81.83 81.83 0 0 1 9 1Z"/><path style="opacity:1" fill="#3d6f44" d="M155.5 336.5a24.425 24.425 0 0 0 3-5 15.265 15.265 0 0 0 3 5.5 240.024 240.024 0 0 1-6-.5Z"/><path style="opacity:1" fill="#3f7547" d="M176.5 337.5h-1a24.935 24.935 0 0 1-7-.5c.88-1.356 1.214-2.856 1-4.5a60.175 60.175 0 0 1 13 2.5c-2.352.24-4.352 1.073-6 2.5Z"/><path style="opacity:1" fill="#3f7347" d="M246.5 338.5c-3.339-.39-6.673-.89-10-1.5-1.82-.2-3.153-1.034-4-2.5a38.353 38.353 0 0 1 12-2c.114 2.218.78 4.218 2 6Z"/><path style="opacity:1" fill="#3f7247" d="m258.5 336.5-4 1a2.428 2.428 0 0 1-2-.5 14.748 14.748 0 0 0 3-4.5 514.367 514.367 0 0 1 3 4Z"/><path style="opacity:1" fill="#d0d0cf" d="M228.5 335.5c7.102 3.186 14.435 4.186 22 3h4c2.099-.731 4.099-.731 6 0a186.336 186.336 0 0 0-6 14 102.225 102.225 0 0 1-30-3c-6.076-2.768-12.576-4.101-19.5-4-4.112-.151-7.946.516-11.5 2a81.802 81.802 0 0 0-10 2 63.512 63.512 0 0 0 3.5-10c1.77-2.097 3.937-3.431 6.5-4 4.785-.676 9.285-2.009 13.5-4l4.5.5a8.905 8.905 0 0 0 4 3c4.321.499 8.654.666 13 .5Z"/><path style="opacity:1" fill="#a5a4a3" d="M139.5 332.5a213.818 213.818 0 0 0 16 4c.763.768 1.763 1.268 3 1.5 3.986.499 7.986.666 12 .5-2.448.973-5.115 1.306-8 1l-4 12c-8.292-1.645-15.959-4.645-23-9-.891-.761-1.558-1.761-2-3 .422-3.923 2.422-6.256 6-7Z"/><path style="opacity:1" fill="#afafae" d="M272.5 332.5h1a98.432 98.432 0 0 1 14 .5l-13 11c-4.147 2.74-8.48 4.907-13 6.5a21.17 21.17 0 0 0-7 2 186.336 186.336 0 0 1 6-14c-1.901-.731-3.901-.731-6 0v-1l4-1c1.291.237 2.291-.096 3-1 2.567-.221 4.901-.888 7-2 1.599.268 2.932-.066 4-1Z"/><path style="opacity:1" fill="#8a8a89" d="M309.5 331.5c.167 4.563-1.833 7.563-6 9 2.713-2.593 4.713-5.593 6-9Z"/><path style="opacity:1" fill="#b6b6b5" d="M193.5 335.5c-2.563.569-4.73 1.903-6.5 4a63.512 63.512 0 0 1-3.5 10 43.355 43.355 0 0 0-7 3h-18v-1l4-12c2.885.306 5.552-.027 8-1 1.915.284 3.581-.049 5-1h1a56.904 56.904 0 0 1 17-2Z"/><path style="opacity:1" fill="#575a54" d="M232.5 334.5c.847 1.466 2.18 2.3 4 2.5 3.327.61 6.661 1.11 10 1.5h4c-7.565 1.186-14.898.186-22-3 1.208-.734 2.541-1.067 4-1Z"/><path style="opacity:1" fill="#949393" d="M44.5 324.5c.617.111 1.117.444 1.5 1a50.352 50.352 0 0 1 2 11 176.498 176.498 0 0 0 17.5 31c-11.53-12.06-18.53-26.394-21-43Z"/><path style="opacity:1" fill="#56422f" d="M224.5 349.5a84.632 84.632 0 0 0-31-2c3.554-1.484 7.388-2.151 11.5-2 6.924-.101 13.424 1.232 19.5 4Z"/><path style="opacity:1" fill="#534e45" d="M273.5 332.5c5.475-.989 11.142-1.322 17-1-11.98 13.629-26.646 23.296-44 29a228.63 228.63 0 0 1 18-9.5 4.934 4.934 0 0 0-3-.5c4.52-1.593 8.853-3.76 13-6.5l13-11a98.432 98.432 0 0 0-14-.5Z"/><path style="opacity:1" fill="#976636" d="M224.5 349.5c10.533 4.668 21.533 5.835 33 3.5 1.566-.608 2.9-1.442 4-2.5a4.934 4.934 0 0 1 3 .5 228.63 228.63 0 0 0-18 9.5c0 .667-.333 1-1 1-.235-.597-.735-.93-1.5-1a25.807 25.807 0 0 1-7.5 2.5c-1.619.236-2.619 1.069-3 2.5a20.69 20.69 0 0 1-5 1c-.597-.639-1.43-.972-2.5-1-19.592 3.747-38.758 2.247-57.5-4.5-7.022-3.179-14.022-6.345-21-9.5-.963-.863-.963-1.53 0-2a34.338 34.338 0 0 0 11 3h18c5.966-.905 11.633-2.572 17-5a84.632 84.632 0 0 1 31 2Z"/><path style="opacity:1" fill="#554635" d="M134.5 343.5c0-.667.333-1 1-1 7.041 4.355 14.708 7.355 23 9v1a34.338 34.338 0 0 1-11-3c-.963.47-.963 1.137 0 2a43.562 43.562 0 0 1-13-8Z"/><path style="opacity:1" fill="#56442e" d="M193.5 347.5c-5.367 2.428-11.034 4.095-17 5a43.355 43.355 0 0 1 7-3 81.802 81.802 0 0 1 10-2Z"/><path style="opacity:1" fill="#a0a1a0" d="M116.5 347.5c4.913 2.26 9.246 5.26 13 9a8.43 8.43 0 0 1-4-.5 106.308 106.308 0 0 0-9-8.5Z"/><path style="opacity:1" fill="#5b4835" d="M224.5 349.5a102.225 102.225 0 0 0 30 3 21.17 21.17 0 0 1 7-2c-1.1 1.058-2.434 1.892-4 2.5-11.467 2.335-22.467 1.168-33-3.5Z"/><path style="opacity:1" fill="#20201a" d="M226.5 356.5a81.604 81.604 0 0 0-24-1.5 243.75 243.75 0 0 0-13 6.5 73.133 73.133 0 0 1-17-1c4.712-2.297 9.712-3.464 15-3.5 7.241-5.05 15.241-6.717 24-5a188.721 188.721 0 0 1 15 4.5Z"/><path style="opacity:1" fill="#929392" d="M369.5 322.5c-2.306 5.052-3.806 10.385-4.5 16-4.509 10.305-10.343 19.638-17.5 28a229.026 229.026 0 0 0 14.5-25 32.653 32.653 0 0 0 3-13c.814-2.677 2.314-4.677 4.5-6Z"/><path style="opacity:1" fill="#838484" d="M288.5 352.5c.438-.065.772.101 1 .5-1.567 2.741-3.901 3.908-7 3.5a892.751 892.751 0 0 1 6-4Z"/><path style="opacity:1" fill="#716252" d="M147.5 351.5c6.978 3.155 13.978 6.321 21 9.5 18.742 6.747 37.908 8.247 57.5 4.5 1.07.028 1.903.361 2.5 1-29.119 6.092-56.119 1.092-81-15Z"/><path style="opacity:1" fill="#3e7547" d="M226.5 356.5c-6.723 1.348-13.39 3.348-20 6a32.415 32.415 0 0 1-7-3v3a28.819 28.819 0 0 0-10-1 243.75 243.75 0 0 1 13-6.5 81.604 81.604 0 0 1 24 1.5Z"/><path style="opacity:1" fill="#929291" d="M282.5 356.5c-1.365 2.36-3.365 4.027-6 5 1.391-2.39 3.391-4.057 6-5Z"/><path style="opacity:1" fill="#23231c" d="M226.5 356.5a20.387 20.387 0 0 1 8 3l-1 1c-1.932-1.02-3.932-1.187-6-.5-7.097 4.204-14.764 5.537-23 4-5.247-.182-10.247-1.016-15-2.5a28.819 28.819 0 0 1 10 1v-3a32.415 32.415 0 0 0 7 3c6.61-2.652 13.277-4.652 20-6Z"/><path style="opacity:1" fill="#766457" d="M245.5 361.5a126.507 126.507 0 0 1-12 4c.381-1.431 1.381-2.264 3-2.5a25.807 25.807 0 0 0 7.5-2.5c.765.07 1.265.403 1.5 1Z"/><path style="opacity:1" fill="#969595" d="M134.5 360.5c3.063 1.551 5.729 3.718 8 6.5a133.74 133.74 0 0 1 11 3c.556.383.889.883 1 1.5-8.734-.032-15.401-3.698-20-11Z"/><path style="opacity:1" fill="#919191" d="M276.5 361.5a54.53 54.53 0 0 1-6 6.5c-2.395 1.598-4.728 1.764-7 .5l6-1.5c1.941-2.454 4.275-4.287 7-5.5Z"/><path style="opacity:1" fill="#2a2522" d="M274.5 366.5c.624.417.957 1.084 1 2-2.301 9.087-3.467 9.087-3.5 0 .995-.566 1.828-1.233 2.5-2Z"/><path style="opacity:1" fill="#858686" d="M261.5 369.5c-1.43 1.794-3.763 3.294-7 4.5a66.87 66.87 0 0 0-5.5 1.5c-.765-.07-1.265-.403-1.5-1a87.142 87.142 0 0 0 14-5Z"/><path style="opacity:1" fill="#282421" d="M129.5 372.5c2.082-.028 3.916.639 5.5 2a416.136 416.136 0 0 0 4.5 23 62.533 62.533 0 0 0 8.5-17 15.83 15.83 0 0 0 5.5 3.5 189.958 189.958 0 0 0-14 25.5 32.367 32.367 0 0 0-4.5-3 163.202 163.202 0 0 1-2-16c-.216-1.884-.883-3.551-2-5a85.275 85.275 0 0 0-7 16 60.631 60.631 0 0 0-6.5-3.5c6.833-7.166 10.833-15.666 12-25.5Z"/><path style="opacity:1" fill="#27221f" d="M285.5 384.5c.934 1.068 1.268 2.401 1 4-1.88-.271-3.213.396-4 2a2.428 2.428 0 0 0-2 .5l4 7c4.059-.015 7.226-1.848 9.5-5.5.808 2.079.641 4.079-.5 6a112.746 112.746 0 0 1-13 6c-2.644-8.955-6.644-17.288-12-25a121.345 121.345 0 0 1 13-7c.952 1.545 1.285 3.212 1 5-2.963-.349-5.296.651-7 3a36.16 36.16 0 0 0 4 7l6-3Z"/><path style="opacity:1" fill="#9a9a9a" d="M73.5 375.5c1.871.359 3.371 1.359 4.5 3a30.593 30.593 0 0 0 8.5 12c-2.236-.889-4.236-2.222-6-4a42.364 42.364 0 0 0-7-11Z"/><path style="opacity:1" fill="#9f9f9f" d="M347.5 366.5c-3.045 5.302-7.212 9.635-12.5 13-.424 2.525-1.59 4.525-3.5 6a29.278 29.278 0 0 1 2.5-7 232.355 232.355 0 0 0 13.5-12Z"/><path style="opacity:1" fill="#999998" d="M154.5 371.5c21.355 6.918 43.355 9.418 66 7.5a172.31 172.31 0 0 0 25-3.5c-.725 1.47-2.391 2.636-5 3.5a973.88 973.88 0 0 1-34 2.5c-16.847.296-33.181-2.204-49-7.5-1.442-.377-2.442-1.21-3-2.5Z"/><path style="opacity:1" fill="#8d8b8a" d="M285.5 384.5c.06-.543.393-.876 1-1a9.86 9.86 0 0 1 1 6 20.69 20.69 0 0 0-5 1c.787-1.604 2.12-2.271 4-2 .268-1.599-.066-2.932-1-4Z"/><path style="opacity:1" fill="#282320" d="M249.5 386.5c3.757-.429 7.257.237 10.5 2a11.532 11.532 0 0 1 1.5 5.5 79.185 79.185 0 0 0-1.5 7.5l11.5 7.5a12.403 12.403 0 0 1-4 2.5 53.743 53.743 0 0 1-12-7c-.382 3.37.618 6.536 3 9.5a23.663 23.663 0 0 0-6 2.5 93.037 93.037 0 0 0-10-27 73.972 73.972 0 0 1 7-3ZM170.5 387.5a1166.395 1166.395 0 0 0 7 32 11.988 11.988 0 0 1-6-1 42.769 42.769 0 0 1-1.5-9c-3.33-1.638-6.83-2.138-10.5-1.5-1.505 2.67-3.505 4.836-6 6.5a43.145 43.145 0 0 1-5-1.5 265.592 265.592 0 0 0 22-25.5Z"/><path style="opacity:1" fill="#f1f1f0" d="M249.5 391.5c6.505-2.326 8.671.007 6.5 7l-3 2a82.399 82.399 0 0 0-3.5-9Z"/><path style="opacity:1" fill="#2b2623" d="M189.5 392.5c5.616.625 11.283 1.292 17 2a747.57 747.57 0 0 0-13 22.5c3.877.729 7.711.562 11.5-.5l1.5 1c-1.134 3.891-3.801 5.557-8 5a51.175 51.175 0 0 1-13-2l13-22c-3.344-1.257-6.677-1.257-10 0-.589-1.981-.255-3.981 1-6Z"/><path style="opacity:1" fill="#272320" d="M225.5 391.5a243.893 243.893 0 0 0 18 27.5 32.462 32.462 0 0 1-8 .5c-.049-2.599-1.049-4.766-3-6.5-9.2-3.208-13.2-.042-12 9.5a24.935 24.935 0 0 1-7-.5 1720.674 1720.674 0 0 0 12-30.5Z"/><path style="opacity:1" fill="#d4d4d3" d="M167.5 397.5c1.879 2.415 2.213 5.082 1 8l-5-2.5c1.939-1.432 3.272-3.265 4-5.5Z"/><path style="opacity:1" fill="#919291" d="M316.5 397.5c-1.647 1.826-3.647 3.16-6 4 1.302-2.322 3.302-3.655 6-4Z"/><path style="opacity:1" fill="#e0e0df" d="M225.5 402.5c1.983 1.402 3.649 3.236 5 5.5a18.453 18.453 0 0 1-6 .5l1-6Z"/><path style="opacity:1" fill="#8e8e8e" d="M307.5 403.5c-13.966 9.981-29.299 17.315-46 22 15.329-5.986 30.662-13.319 46-22Z"/><path style="opacity:1" fill="#909090" d="M94.5 396.5a319.773 319.773 0 0 1 20 12.5c24.085 13.21 49.752 20.877 77 23a2.428 2.428 0 0 1-2 .5 103.216 103.216 0 0 1-9.5-3c-7.587 1.311-15.087.811-22.5-1.5-23.283-6.308-44.283-16.808-63-31.5Z"/><path style="opacity:1" fill="#858585" d="M259.5 426.5c-9.083 3.35-18.416 4.35-28 3a55.78 55.78 0 0 0-9 4h-29a238.217 238.217 0 0 1 22-1.5 32.653 32.653 0 0 0 13-3 118.812 118.812 0 0 0 29.5-3.5c.765.07 1.265.403 1.5 1Z"/></svg>